<svg width="26" height="42" viewBox="0 0 26 42" fill="none" xmlns="http://www.w3.org/2000/svg">
<path d="M17.9109 29.5728C18.3687 25.9481 20.0282 23.7043 21.5732 21.518C23.2899 19.159 24.8922 16.9152 24.8922 13.0604C24.8922 6.44388 19.5704 1.09316 12.9897 1.09316C6.40903 1.09316 1.08725 6.44388 1.08725 13.0604C1.08725 16.9152 2.6895 19.159 4.40621 21.518C6.00846 23.7043 7.61072 25.9481 8.06851 29.5728C8.06851 29.5728 7.21015 29.5728 6.98126 29.5728C6.52347 26.3509 4.97844 24.2221 3.54785 22.2084C1.77393 19.7919 0 17.3179 0 13.0604C0 5.86854 5.83679 0 12.9897 0C20.1427 0 25.9794 5.86854 25.9794 13.0604C25.9794 17.3179 24.2055 19.7919 22.4316 22.1508C22.2027 22.4385 22.031 22.7262 21.8021 23.0139C20.6004 24.7399 19.3987 26.6385 18.9982 29.3427C18.9982 29.4002 18.9982 29.4577 18.941 29.5728C18.8265 29.5728 17.9109 29.5728 17.9109 29.5728Z" fill="#06A7E0"/>
<path d="M18.9983 31.5865H10.1287V32.6796H18.9983V31.5865Z" fill="#06A7E0"/>
<path d="M9.21316 31.5866H6.98145V32.6798H9.21316V31.5866Z" fill="#06A7E0"/>
<path d="M15.9081 34.2331H6.9812V35.3262H15.9081V34.2331Z" fill="#06A7E0"/>
<path d="M18.998 34.2331H16.6519V35.3262H18.998V34.2331Z" fill="#06A7E0"/>
<path d="M15.1068 42H11.2728L10.3 40.389L11.2156 39.8137L11.9023 40.8493H14.5346L15.164 39.8137L16.0796 40.389L15.1068 42Z" fill="#06A7E0"/>
<path d="M14.1914 38.7209H12.2458V36.8222H14.1914C14.1914 38.7209 14.1914 36.8222 14.1914 38.7209Z" fill="#FCD40B"/>
<path d="M18.1399 38.7209H16.1943V36.8222H18.1399C18.1399 38.7209 18.1399 36.8222 18.1399 38.7209Z" fill="#FAA81E"/>
<path d="M10.1858 38.7215H8.24023V36.8228H10.1858C10.1858 38.7215 10.1858 36.8228 10.1858 38.7215Z" fill="#86C24B"/>
<path d="M11.5592 7.24941L11.6736 6.84666L10.9297 6.55899L10.8153 6.96173C10.5864 7.70968 9.89969 8.16996 9.09856 8.16996H8.698V8.97545H9.09856C10.1858 9.03298 11.2158 8.28503 11.5592 7.24941Z" fill="#06A7E0"/>
<path d="M9.09856 17.1452H8.698V17.9507H9.09856C9.84247 17.9507 10.5291 18.4109 10.8153 19.1589L10.9297 19.5616L11.6736 19.274L11.5592 18.8712C11.2158 17.8931 10.1858 17.1452 9.09856 17.1452Z" fill="#06A7E0"/>
<path d="M11.1587 12.6574V12.2547H10.3576V12.6574C10.3576 13.6355 9.55647 14.441 8.58367 14.441H8.18311V15.2465H8.58367C10.0143 15.2465 11.1587 14.0958 11.1587 12.6574Z" fill="#06A7E0"/>
<path d="M10.1858 3.68225C9.27024 3.68225 8.46912 4.14253 7.9541 4.94801H7.89688C6.52352 4.94801 5.43627 6.04117 5.32183 7.36447C4.86404 7.47954 4.5207 7.70968 4.17736 8.05488C3.37623 8.86037 3.20456 10.0686 3.71957 11.0467C3.09011 11.507 2.63232 12.3124 2.63232 13.1755C2.63232 13.981 3.03289 14.7864 3.71957 15.2467C3.5479 15.5344 3.43345 15.9371 3.43345 16.3399C3.43345 17.4906 4.23458 18.5262 5.32183 18.8139C5.37905 20.1947 6.52352 21.2303 7.89688 21.2303H7.9541C8.41189 21.9783 9.27024 22.4961 10.1858 22.4961C11.6164 22.4961 12.7609 21.3454 12.7609 19.907V12.9453V12.5426V6.27131C12.8181 4.83294 11.6164 3.68225 10.1858 3.68225ZM12.017 19.907C12.017 20.8851 11.2158 21.6906 10.243 21.6906C9.72803 21.6906 9.21302 21.4605 8.86968 21.0577C9.09857 21.0002 9.27024 20.8851 9.49914 20.7125L9.84248 20.4824L9.38469 19.8495L8.98413 20.1372C8.69801 20.3673 8.29744 20.4824 7.9541 20.4824C6.98131 20.4824 6.18018 19.6769 6.18018 18.6988C6.18018 17.7207 6.98131 16.9152 7.9541 16.9152H8.35467V16.1097H7.9541C6.75241 16.1097 5.72239 16.9152 5.43627 18.0659C4.74959 17.8358 4.23458 17.1454 4.23458 16.3974C4.23458 15.7645 4.57792 15.1892 5.15016 14.844L5.4935 14.6714L5.09293 13.981L4.74959 14.1536C4.5207 14.2686 4.34903 14.4412 4.17736 14.6138C3.71957 14.2686 3.43345 13.7508 3.43345 13.1755C3.43345 12.1974 4.23458 11.3919 5.20738 11.3919C6.18018 11.3919 6.98131 12.1974 6.98131 13.1755V13.5782H7.78243V13.1755C7.78243 11.7371 6.63797 10.5864 5.20738 10.5864C4.92126 10.5864 4.63514 10.6439 4.40625 10.7015C4.06291 10.0111 4.17736 9.20558 4.74959 8.63023C4.92126 8.45763 5.15016 8.28502 5.37905 8.22749C5.66517 9.37818 6.69519 10.1837 7.89688 10.1837H8.29745V9.37818H7.89688C6.92408 9.37818 6.12295 8.5727 6.12295 7.59461C6.12295 6.61652 6.92408 5.81103 7.89688 5.81103C8.29745 5.81103 8.64079 5.9261 8.9269 6.15624L9.27024 6.38638L9.72803 5.7535L9.38469 5.52336C9.21302 5.40829 8.98413 5.29322 8.75523 5.17815C9.09857 4.77541 9.55636 4.54527 10.1286 4.54527C11.1014 4.54527 11.9025 5.35076 11.9025 6.32885V10.7015C11.4447 10.2412 10.8153 9.95353 10.1286 9.95353H9.72803V10.759H10.1286C11.1014 10.759 11.9025 11.5645 11.9025 12.5426V12.9453V19.907H12.017Z" fill="#06A7E0"/>
<path d="M17.3387 9.03291V8.22743H16.9381C16.1942 8.22743 15.5075 7.76715 15.2214 7.0192L15.1069 6.61646L14.363 6.90413L14.4775 7.30687C14.8208 8.3425 15.7936 9.03291 16.9381 9.03291H17.3387Z" fill="#06A7E0"/>
<path d="M14.4775 18.929L14.363 19.3317L15.1069 19.6194L15.2214 19.2166C15.4503 18.4687 16.137 18.0084 16.9381 18.0084H17.3387V17.2029H16.9381C15.7936 17.1454 14.8208 17.8934 14.4775 18.929Z" fill="#06A7E0"/>
<path d="M15.6793 12.6574V12.2547H14.8782V12.6574C14.8782 14.0958 16.0226 15.2465 17.4532 15.2465H17.8538V14.441H17.4532C16.4804 14.441 15.6793 13.6355 15.6793 12.6574Z" fill="#06A7E0"/>
<path d="M23.3471 13.1178C23.3471 12.2548 22.9465 11.5069 22.2598 10.989C22.7748 10.011 22.6031 8.80272 21.802 7.99724C21.4587 7.65203 21.1153 7.47943 20.6576 7.30682C20.5431 5.98352 19.4559 4.89037 18.0825 4.89037H18.0253C17.5675 4.14242 16.7091 3.6246 15.7936 3.6246C14.363 3.6246 13.2185 4.7753 13.2185 6.21366V12.4849V12.8877V19.8494C13.2185 21.2877 14.363 22.4384 15.7936 22.4384C16.7091 22.4384 17.5103 21.9782 18.0253 21.1727H18.0825C19.4559 21.1727 20.6003 20.0795 20.6576 18.7562C21.7448 18.4685 22.5459 17.4329 22.5459 16.2822C22.5459 15.8795 22.4315 15.4767 22.2598 15.1315C22.9465 14.7288 23.3471 13.9233 23.3471 13.1178ZM21.8592 14.5562C21.6876 14.3836 21.5159 14.211 21.287 14.0959L20.9437 13.9233L20.5431 14.6137L20.8864 14.7863C21.4587 15.1315 21.802 15.7069 21.802 16.3398C21.802 17.0877 21.287 17.7781 20.6003 18.0083C20.3142 16.9151 19.2842 16.0521 18.0825 16.0521H17.6819V16.8576H18.0825C19.0553 16.8576 19.8564 17.6631 19.8564 18.6412C19.8564 19.6192 19.0553 20.4247 18.0825 20.4247C17.6819 20.4247 17.3386 20.3097 17.0525 20.0795L16.7091 19.8494L16.2513 20.4823L16.5947 20.7124C16.7664 20.8275 16.9953 20.9425 17.2241 21.0576C16.8808 21.4603 16.423 21.6905 15.8508 21.6905C14.878 21.6905 14.0769 20.885 14.0769 19.9069V12.9452V12.5425C14.0769 11.5644 14.878 10.7589 15.8508 10.7589H16.2513V9.95342H15.8508C15.1641 9.95342 14.5346 10.2411 14.0769 10.7014V6.32873C14.0769 5.35064 14.878 4.54516 15.8508 4.54516C16.3658 4.54516 16.8808 4.7753 17.2241 5.17804C16.938 5.17804 16.7664 5.29311 16.5947 5.40818L16.2513 5.63832L16.7091 6.2712L17.0525 6.04106C17.3386 5.81092 17.7392 5.69585 18.0825 5.69585C19.0553 5.69585 19.8564 6.50134 19.8564 7.47943C19.8564 8.45751 19.0553 9.263 18.0825 9.263H17.6819V10.0685H18.0825C19.2842 10.0685 20.3142 9.20547 20.6003 8.11231C20.8292 8.22738 21.0581 8.34245 21.2298 8.51505C21.802 9.0904 21.9165 9.89588 21.5731 10.5863C21.3442 10.5288 21.0581 10.4712 20.772 10.4712C19.3414 10.4712 18.1969 11.6219 18.1969 13.0603V13.463H18.9981V13.0603C18.9981 12.0822 19.7992 11.2767 20.772 11.2767C21.7448 11.2767 22.5459 12.0822 22.5459 13.0603C22.5459 13.6356 22.317 14.211 21.8592 14.5562Z" fill="#06A7E0"/>
</svg>
