<svg width="44" height="37" viewBox="0 0 44 37" fill="none" xmlns="http://www.w3.org/2000/svg">
<path d="M32.1206 21.5375L35.1216 22.732L42.3109 4.6692L39.3099 3.47474L32.1206 21.5375Z" stroke="#06A7E0" stroke-miterlimit="10"/>
<path d="M31.5327 27.3121C32.386 27.6168 33.3001 27.2511 33.6048 26.3979L35.0675 22.6803L32.0812 21.4615L30.6186 25.179C30.3139 26.0932 30.6795 27.0074 31.5327 27.3121Z" stroke="#06A7E0" stroke-miterlimit="10"/>
<path d="M31.5328 27.312L30.314 30.3592" stroke="#06A7E0" stroke-miterlimit="10" stroke-linecap="round"/>
<path d="M41.9542 1.10613C41.101 0.801415 40.1869 1.16708 39.8821 2.02029L39.2727 3.54389L42.259 4.76277L42.8684 3.23917C43.2341 2.38596 42.8075 1.41085 41.9542 1.10613Z" stroke="#06A7E0" stroke-miterlimit="10"/>
<path d="M39.1509 18.719V35.6614H1V11.4057H33.1175" stroke="#06A7E0" stroke-miterlimit="10" stroke-linecap="round"/>
<path d="M16.6523 16.5759L16.6523 17.7947L28.1098 17.7947L28.1098 16.5759L16.6523 16.5759Z" fill="#06A7E0"/>
<path d="M23.4883 31.7H21.2334V29.4451H23.4883C23.4883 31.7 23.4883 29.4451 23.4883 31.7Z" fill="#FCD40B"/>
<path d="M28.0591 31.7H25.8042V29.4451H28.0591C28.0591 31.7 28.0591 29.4451 28.0591 31.7Z" fill="#FAA81E"/>
<path d="M18.8565 31.7H16.6016V29.4451H18.8565C18.8565 31.7 18.8565 29.4451 18.8565 31.7Z" fill="#86C24B"/>
<path d="M9.83682 29.9936V31.7H8.98361V30.0545C7.09435 29.9327 5.63169 29.1404 4.71753 28.0434L5.44886 27.1902C6.18019 28.0434 7.39907 28.8966 8.98361 29.0185V23.7164C7.09435 23.1679 5.14414 22.5584 5.14414 20.3644C5.14414 18.4142 6.85057 17.1344 8.98361 17.0125V15.3061H9.83682V17.0735C11.4214 17.1954 12.6402 17.8048 13.4935 18.8408L12.7621 19.6331C12.0308 18.719 10.9948 18.2314 9.77588 18.1095V22.8631C11.7261 23.4116 13.7372 24.082 13.7372 26.5198C13.7982 27.9824 12.884 29.8108 9.83682 29.9936ZM8.98361 22.4975V17.9876C7.46001 18.0486 6.24113 18.9627 6.24113 20.3035C6.24113 21.6443 7.52095 22.1318 8.98361 22.4975ZM12.7012 26.5198C12.7012 24.9352 11.3604 24.3867 9.89777 23.9601V29.0185C12.0918 28.8357 12.7012 27.5558 12.7012 26.5198Z" fill="#06A7E0"/>
<path d="M16.6445 20.6668L16.6445 21.8857L28.102 21.8857L28.102 20.6668L16.6445 20.6668Z" fill="#06A7E0"/>
<path d="M16.637 24.7578L16.637 25.9767L28.0944 25.9767L28.0944 24.7578L16.637 24.7578Z" fill="#06A7E0"/>
</svg>
