<svg width="44" height="72" viewBox="0 0 44 72" fill="none" xmlns="http://www.w3.org/2000/svg">
<path d="M43.86 38.1V37.4C43.8497 36.927 43.7826 36.4569 43.66 36C43.402 34.9854 42.8852 34.055 42.16 33.3L42.06 33.2L41.86 33C41.5851 32.7361 41.2834 32.5015 40.96 32.3V6.69998C40.96 5.83325 40.7893 4.97501 40.4576 4.17427C40.1259 3.37352 39.6398 2.64594 39.0269 2.03307C38.414 1.4202 37.6865 0.934052 36.8857 0.602371C36.085 0.27069 35.2267 0.0999756 34.36 0.0999756C33.4933 0.0999756 32.635 0.27069 31.8343 0.602371C31.0335 0.934052 30.306 1.4202 29.6931 2.03307C29.0802 2.64594 28.5941 3.37352 28.2624 4.17427C27.9307 4.97501 27.76 5.83325 27.76 6.69998V24.7C27.4794 24.4427 27.1784 24.2086 26.86 24C25.8868 23.3398 24.7359 22.9911 23.56 23C23.1243 22.9835 22.6881 23.017 22.26 23.1C21.4606 23.2613 20.7024 23.584 20.0319 24.0482C19.3613 24.5124 18.7924 25.1085 18.36 25.8C17.9583 26.4875 17.6554 27.2281 17.46 28C16.4435 27.0897 15.1245 26.5906 13.76 26.6C13.3904 26.5788 13.0197 26.6125 12.66 26.7C11.5756 26.9094 10.591 27.472 9.86001 28.3C9.16346 29.0608 8.68047 29.9923 8.46 31C8.27028 30.8983 8.10081 30.7628 7.96 30.6C7.12123 30.0736 6.15025 29.7962 5.16001 29.8C4.82356 29.7836 4.48655 29.8173 4.16001 29.9C3.4514 30.0964 2.77695 30.3999 2.16001 30.8C1.71961 31.1255 1.34613 31.533 1.06001 32C0.680291 32.606 0.441108 33.2894 0.360006 34V34.2C0.157847 36.227 0.0577196 38.2629 0.0600053 40.3C0.0642933 44.7214 0.635621 49.1239 1.76001 53.4C2.78437 57.1646 4.33286 60.7665 6.36001 64.1C6.46001 64.2 6.56001 64.3 6.56001 64.4C6.56001 64.5 6.66001 64.7 6.86001 64.8V68.2C6.85193 69.1665 7.22546 70.0972 7.89949 70.7899C8.57352 71.4827 9.49363 71.8816 10.46 71.9H33.46C33.9463 71.9013 34.428 71.8065 34.8775 71.621C35.327 71.4355 35.7354 71.1631 36.0792 70.8192C36.4231 70.4754 36.6956 70.067 36.8811 69.6175C37.0665 69.168 37.1613 68.6862 37.16 68.2V64.8C37.2653 64.6897 37.335 64.5504 37.36 64.4C37.46 64.3 37.46 64.2 37.56 64.1C39.628 60.7877 41.1792 57.1796 42.16 53.4C43.2972 49.1265 43.8688 44.7222 43.86 40.3C43.9613 39.5701 43.9613 38.8298 43.86 38.1ZM29.26 6.69998C29.26 5.34737 29.7973 4.05017 30.7538 3.09373C31.7102 2.1373 33.0074 1.59998 34.36 1.59998C35.7126 1.59998 37.0098 2.1373 37.9663 3.09373C38.9227 4.05017 39.46 5.34737 39.46 6.69998V31.8C39.0356 31.6847 38.5995 31.6176 38.16 31.6H30.26L29.46 27.8V27.7C29.4404 27.4557 29.3724 27.2178 29.26 27V6.69998ZM19.56 26.5C19.8807 25.9653 20.3162 25.5084 20.8351 25.1626C21.3539 24.8167 21.9431 24.5904 22.56 24.5C22.8865 24.4173 23.2236 24.3836 23.56 24.4C24.4555 24.4048 25.3281 24.684 26.06 25.2C26.8386 25.7246 27.4606 26.4503 27.86 27.3C27.9434 27.5726 28.0436 27.8398 28.16 28.1L28.86 31.6H27.86C26.4855 31.6804 25.1954 32.2896 24.26 33.3C23.715 33.8336 23.2835 34.4718 22.9914 35.1764C22.6992 35.881 22.5525 36.6373 22.56 37.4C22.5682 38.8515 23.1149 40.2483 24.094 41.3198C25.0732 42.3913 26.4151 43.0613 27.86 43.2H31C30.9164 43.8173 30.6753 44.4028 30.3 44.9C30.2 45 30.1 45.2 30 45.3L29.1 46.2C28.5854 46.5656 28.0097 46.8365 27.4 47C27.0735 47.0827 26.7365 47.1164 26.4 47.1C25.5045 47.0952 24.632 46.8159 23.9 46.3C23.3653 45.9792 22.9085 45.5437 22.5626 45.0249C22.2167 44.5061 21.9904 43.9169 21.9 43.3L19.1 30.1C18.8748 29.5083 18.799 28.8703 18.8792 28.2424C18.9594 27.6144 19.1933 27.016 19.56 26.5ZM10.26 29.8C10.5443 29.366 10.9114 28.9924 11.3405 28.7006C11.7695 28.4089 12.2519 28.2048 12.76 28.1C13.0195 28.0234 13.2897 27.9896 13.56 28C14.3341 27.9973 15.0944 28.2047 15.76 28.6C16.194 28.8842 16.5676 29.2514 16.8593 29.6804C17.1511 30.1095 17.3552 30.5919 17.46 31.1L20.06 42.8C20.1777 43.3163 20.1917 43.8508 20.1013 44.3725C20.0108 44.8943 19.8176 45.3929 19.533 45.8394C19.2483 46.2859 18.8779 46.6715 18.443 46.9737C18.0082 47.2759 17.5177 47.4888 17 47.6C16.7418 47.6823 16.4706 47.7162 16.2 47.7C15.2813 47.6956 14.3922 47.3751 13.6819 46.7923C12.9717 46.2096 12.4837 45.4001 12.3 44.5L12.1 43.7L9.8 32.8C9.65225 32.2968 9.61687 31.7672 9.69636 31.2488C9.77585 30.7304 9.96826 30.2358 10.26 29.8ZM2.26001 32.8C2.48767 32.4186 2.79176 32.0885 3.15316 31.8304C3.51456 31.5723 3.92545 31.3917 4.36001 31.3C4.56001 31.3 4.86001 31.2 5.06001 31.2C5.69264 31.2117 6.31196 31.3837 6.86001 31.7C7.53842 32.1003 8.03898 32.7439 8.26001 33.5L8.36001 33.8L10.46 43.8V43.9C10.6308 44.7618 10.4531 45.6562 9.96578 46.3872C9.47844 47.1182 8.72122 47.6262 7.86001 47.8C7.66001 47.8 7.36001 47.9 7.16001 47.9C6.52737 47.8883 5.90805 47.7162 5.36001 47.4C4.97868 47.1723 4.64856 46.8682 4.39042 46.5068C4.13228 46.1454 3.95169 45.7345 3.86001 45.3L1.76001 35.3C1.63297 34.4339 1.80964 33.5506 2.26001 32.8ZM42.46 40.5V41.2C42.26 49 40.36 56.5 36.96 62.2C36.56 62.9 36.06 63.6 35.66 64.2V68C35.6548 68.5818 35.4213 69.1384 35.0099 69.5498C34.5984 69.9613 34.0419 70.1948 33.46 70.2H10.46C9.87814 70.1948 9.32159 69.9613 8.91014 69.5498C8.49868 69.1384 8.26522 68.5818 8.26001 68V64.2C7.86001 63.6 7.36 62.9 6.96 62.2C3.27277 55.5672 1.37719 48.0883 1.46 40.5L2.56001 45.7C2.68819 46.3297 2.93975 46.9278 3.30017 47.4599C3.66059 47.9919 4.12275 48.4474 4.66001 48.8C5.43608 49.3018 6.33606 49.5787 7.26001 49.6C7.59645 49.6164 7.93347 49.5827 8.26001 49.5H8.46C8.91454 49.3948 9.35212 49.2265 9.76 49C10.5618 48.5165 11.2183 47.8255 11.66 47C12.3349 47.8845 13.2319 48.5746 14.26 49C14.8742 49.197 15.515 49.2981 16.16 49.3C16.5626 49.3164 16.9657 49.2828 17.36 49.2H17.46C17.6725 49.1793 17.8776 49.1109 18.06 49C18.7692 48.7436 19.4188 48.3453 19.969 47.8295C20.5191 47.3137 20.9584 46.6912 21.26 46C21.7341 46.6658 22.3234 47.2415 23 47.7C24.0038 48.3745 25.1909 48.7236 26.4 48.7C26.8357 48.7165 27.2719 48.6829 27.7 48.6C28.5802 48.4425 29.4061 48.064 30.1 47.5C30.4553 47.2253 30.7896 46.9245 31.1 46.6C31.2994 46.3919 31.4678 46.1561 31.6 45.9C31.8061 45.5879 31.974 45.2521 32.1 44.9L33.3 48.6C33.3513 48.7451 33.446 48.8709 33.5712 48.9603C33.6964 49.0498 33.8461 49.0985 34 49.1H34.2C34.3787 49.0214 34.5214 48.8787 34.6 48.7C34.6814 48.511 34.7158 48.3051 34.7 48.1L33.2 43.2C33 42.7 32.8 42.3 32.6 41.9H28C26.9337 41.7913 25.9453 41.2919 25.2252 40.498C24.5052 39.7041 24.1044 38.6718 24.1 37.6C24.0932 37.0366 24.2055 36.4781 24.4295 35.9611C24.6535 35.4441 24.9842 34.9803 25.4 34.6C26.0993 33.9078 27.0195 33.4831 28 33.4H38.2C38.673 33.4103 39.143 33.4774 39.6 33.6C40.0634 33.7726 40.5008 34.0081 40.9 34.3C41.014 34.4235 41.1495 34.5252 41.3 34.6C41.8169 35.1335 42.1947 35.786 42.4 36.5C42.4 37.1 42.5 37.7 42.5 38.3L42.46 40.5ZM20.56 54.3H19L18.5 56.9H17L17.5 54.3H16L15.5 56.9H13.6V58.4H15.2L14.8 60.4H13.6V61.8H14.5L14 64.5H15.5L16 61.8H17.5L17 64.5H18.5L19 61.8H20.9V60.4H19.3L19.7 58.4H20.9V56.9H20L20.56 54.3ZM17.86 60.4H16.36L16.76 58.4H18.26L17.86 60.4ZM28.66 51.7H30.46L27.26 67.1H24.26L26.46 56.5C25.7579 56.9261 25.0221 57.2939 24.26 57.6C23.5478 57.8952 22.8118 58.1294 22.06 58.3L22.66 55.6C24.8903 54.6944 26.9269 53.3706 28.66 51.7Z" fill="white"/>
</svg>
