<svg width="48" height="74" viewBox="0 0 48 74" fill="none" xmlns="http://www.w3.org/2000/svg">
<path d="M40.76 6.92001C38.5895 4.71871 36.0015 2.97277 33.1476 1.78451C30.2937 0.596249 27.2314 -0.0104364 24.14 1.05876e-05C17.8789 -3.41681e-06 11.8736 2.48377 7.44165 6.90632C3.00972 11.3289 0.513243 17.329 0.5 23.59C0.61 29.16 4.31 38.89 11.83 53.33C17.15 63.57 22.46 72.44 23.05 73.41C23.1316 73.5918 23.2656 73.7451 23.4348 73.8502C23.6041 73.9553 23.8009 74.0075 24 74C24.1887 74.006 24.3752 73.9585 24.538 73.8629C24.7008 73.7674 24.8333 73.6277 24.92 73.46C25.55 72.46 30.92 63.4 36.17 53.33C41.42 43.26 47.36 30.67 47.5 23.58C47.5405 20.4944 46.9652 17.4318 45.8079 14.5712C44.6506 11.7106 42.9345 9.10948 40.76 6.92001ZM34.32 52.28C30.58 59.48 26.73 66.28 24.56 69.83L24.14 70.54L23.71 69.83C21.53 66.21 17.71 59.44 13.96 52.28C11.33 47.28 2.75 30.46 2.96 23.58C3.0804 18.0358 5.36738 12.7593 9.33098 8.88085C13.2946 5.0024 18.6195 2.83053 24.165 2.83053C29.7105 2.83053 35.0354 5.0024 38.999 8.88085C42.9626 12.7593 45.2496 18.0358 45.37 23.58C45.52 30.46 37 47.29 34.32 52.28ZM24 11.5C21.6266 11.5 19.3065 12.2038 17.3332 13.5224C15.3598 14.841 13.8217 16.7151 12.9134 18.9078C12.0052 21.1005 11.7676 23.5133 12.2306 25.8411C12.6936 28.1689 13.8365 30.3071 15.5147 31.9853C17.1929 33.6635 19.3311 34.8064 21.6589 35.2694C23.9867 35.7325 26.3995 35.4948 28.5922 34.5866C30.7849 33.6783 32.6591 32.1402 33.9776 30.1669C35.2962 28.1935 36 25.8734 36 23.5C36 20.3174 34.7357 17.2652 32.4853 15.0147C30.2348 12.7643 27.1826 11.5 24 11.5ZM24 33.5C22.0222 33.5 20.0888 32.9135 18.4443 31.8147C16.7998 30.7159 15.5181 29.1541 14.7612 27.3268C14.0043 25.4996 13.8063 23.4889 14.1921 21.5491C14.578 19.6093 15.5304 17.8275 16.9289 16.4289C18.3275 15.0304 20.1093 14.078 22.0491 13.6922C23.9889 13.3063 25.9996 13.5043 27.8268 14.2612C29.6541 15.0181 31.2159 16.2998 32.3147 17.9443C33.4135 19.5888 34 21.5222 34 23.5C34 26.1522 32.9464 28.6957 31.0711 30.5711C29.1957 32.4464 26.6522 33.5 24 33.5Z" fill="white"/>
</svg>
