<svg width="32" height="28" viewBox="0 0 32 28" fill="none" xmlns="http://www.w3.org/2000/svg">
<path d="M27.8089 18.48C28.1416 18.7792 28.3786 19.17 28.49 19.6033C28.6014 20.0367 28.5823 20.4933 28.4351 20.9159C28.2879 21.3384 28.0192 21.7081 27.6627 21.9784C27.3062 22.2488 26.8777 22.4078 26.4311 22.4356H26.2978C25.7404 22.4342 25.2028 22.2286 24.7867 21.8578L19.2311 17.3245C19.1777 17.2895 19.1325 17.2434 19.0985 17.1894C19.0646 17.1354 19.0426 17.0747 19.0342 17.0115C19.0257 16.9482 19.031 16.8839 19.0497 16.8228C19.0683 16.7618 19.0999 16.7055 19.1422 16.6578C19.1827 16.6048 19.2333 16.5603 19.2912 16.5271C19.349 16.4938 19.4129 16.4725 19.4791 16.4642C19.5453 16.4559 19.6125 16.4609 19.6768 16.4789C19.741 16.4969 19.801 16.5275 19.8533 16.5689L25.4089 21.1111C25.5311 21.2321 25.6773 21.3262 25.838 21.3874C25.9987 21.4486 26.1705 21.4756 26.3422 21.4667C26.6847 21.4386 27.0032 21.2794 27.2311 21.0222C27.3467 20.8976 27.4363 20.7512 27.4945 20.5915C27.5527 20.4319 27.5784 20.2622 27.5702 20.0924C27.5619 19.9227 27.5198 19.7563 27.4463 19.603C27.3728 19.4498 27.2694 19.3127 27.1422 19.2L20.7867 13.5111C20.7365 13.4727 20.695 13.4239 20.6652 13.3682C20.6353 13.3124 20.6177 13.251 20.6135 13.1878C20.6093 13.1247 20.6186 13.0615 20.6408 13.0022C20.663 12.943 20.6976 12.8892 20.7422 12.8445C20.7855 12.7941 20.8385 12.753 20.8979 12.7234C20.9574 12.6939 21.0222 12.6765 21.0884 12.6724C21.1547 12.6683 21.2211 12.6774 21.2838 12.6993C21.3464 12.7212 21.4041 12.7555 21.4533 12.8L27.8089 18.48ZM26.1378 22.8889C26.0083 22.8668 25.8753 22.8962 25.7673 22.971C25.6593 23.0458 25.5849 23.1599 25.56 23.2889C25.514 23.5242 25.3996 23.7406 25.2311 23.9111C25.0032 24.1683 24.6847 24.3275 24.3422 24.3556C24.1709 24.3606 24.0003 24.3318 23.8401 24.2708C23.6799 24.2098 23.5334 24.1178 23.4089 24L18.8756 20.3556C18.8259 20.3176 18.7693 20.2898 18.709 20.2738C18.6486 20.2577 18.5857 20.2537 18.5238 20.2619C18.4619 20.2702 18.4022 20.2906 18.3482 20.3219C18.2942 20.3532 18.2468 20.3948 18.2089 20.4445C18.171 20.4941 18.1432 20.5507 18.1271 20.611C18.111 20.6714 18.107 20.7343 18.1153 20.7962C18.1235 20.8581 18.1439 20.9178 18.1752 20.9718C18.2065 21.0258 18.2482 21.0732 18.2978 21.1111L22.8311 24.7111C23.2473 25.0819 23.7848 25.2875 24.3422 25.2889H24.4756C25.0735 25.2525 25.6328 24.9809 26.0311 24.5333C26.3178 24.2236 26.5091 23.8379 26.5822 23.4222C26.5781 23.2965 26.5322 23.1758 26.4517 23.0792C26.3712 22.9825 26.2607 22.9156 26.1378 22.8889ZM21.7778 24.9911C21.4636 25.3275 21.0594 25.5666 20.6133 25.68C20.2712 25.6693 19.9425 25.5441 19.68 25.3245L18.9244 24.7022C18.8301 24.6197 18.7069 24.578 18.5819 24.5864C18.4569 24.5947 18.3403 24.6524 18.2578 24.7467C18.1753 24.841 18.1336 24.9642 18.1419 25.0892C18.1503 25.2142 18.2079 25.3308 18.3022 25.4133L19.0578 26.0356C19.4822 26.3926 20.0146 26.5961 20.5689 26.6133C20.6133 26.6133 20.6578 26.6133 20.6578 26.6578C21.3653 26.5175 22.008 26.1509 22.4889 25.6133C22.5335 25.5686 22.5681 25.5148 22.5903 25.4555C22.6125 25.3963 22.6219 25.333 22.6176 25.2699C22.6134 25.2068 22.5958 25.1454 22.5659 25.0896C22.5361 25.0339 22.4947 24.9851 22.4444 24.9467C22.3489 24.8671 22.2263 24.8273 22.1022 24.8356C21.9781 24.8439 21.8619 24.8995 21.7778 24.9911ZM11.8089 6.74667L9.63111 11.8133C9.63111 11.8578 9.58667 11.9467 9.58667 11.9911C9.64763 12.6653 9.94705 13.2957 10.4311 13.7689C10.9045 14.1615 11.5053 14.367 12.12 14.3467C12.7901 14.3738 13.4491 14.1698 13.9867 13.7689C14.7422 13.1467 15.8089 11.0578 16.1644 10.2578H21.6756C21.7398 10.2578 21.8033 10.2451 21.8626 10.2206C21.922 10.196 21.9759 10.16 22.0213 10.1146C22.0666 10.0692 22.1027 10.0153 22.1272 9.95599C22.1518 9.89667 22.1644 9.8331 22.1644 9.7689C22.1644 9.70469 22.1518 9.64112 22.1272 9.58181C22.1027 9.52249 22.0666 9.4686 22.0213 9.4232C21.9759 9.3778 21.922 9.34179 21.8626 9.31722C21.8033 9.29265 21.7398 9.28001 21.6756 9.28001H15.8978C15.8061 9.27833 15.7159 9.30244 15.6373 9.3496C15.5587 9.39675 15.495 9.46504 15.4533 9.54667C14.9644 10.6578 13.9422 12.5689 13.4089 13.0133C13.0089 13.3245 11.6756 13.5467 11.1422 13.0578C10.8519 12.7824 10.6507 12.4263 10.5644 12.0356L12.6089 7.33334C13.72 6.80001 16.3422 5.60001 17.3644 5.51112C18.9644 5.37778 23.7644 5.95556 23.8089 5.95556C23.8533 5.95556 24.3644 5.71112 24.2533 5.79556L31.1422 1.42223C31.1422 1.42223 31.4089 0.977783 31.2756 0.755561C31.2034 0.651182 31.0936 0.57892 30.9692 0.55404C30.8448 0.52916 30.7156 0.553611 30.6089 0.622227L25.9867 3.77778L23.7644 4.97778C22.92 4.84445 18.8311 4.35556 17.2756 4.53334C15.8533 4.66667 12.4311 6.35556 12.0311 6.53334C11.9378 6.58126 11.8606 6.65541 11.8089 6.74667ZM24.0756 5.90223C24.1371 5.86728 24.1964 5.82869 24.2533 5.78667L24.0756 5.90223ZM31.72 13.0133C31.6521 12.9045 31.5484 12.8228 31.4267 12.7822C31.305 12.7416 31.173 12.7448 31.0533 12.7911L29.4089 13.6356C29.3439 13.664 29.2861 13.7067 29.24 13.7606C29.1938 13.8145 29.1604 13.8781 29.1422 13.9467C28.9644 14.5245 27.64 16.4267 27.0622 17.0933L27.8178 17.7156C27.9511 17.5378 29.6311 15.4133 29.9867 14.3911L31.4533 13.6356C31.5178 13.6211 31.5779 13.5915 31.6287 13.5492C31.6795 13.507 31.7195 13.4533 31.7456 13.3926C31.7716 13.3318 31.7829 13.2658 31.7784 13.1999C31.774 13.134 31.7539 13.07 31.72 13.0133ZM6.52 5.59112H6.66667C8.43572 5.12059 10.2583 4.88156 12.0889 4.88001L13.6044 5.02667L15.3511 4.31112L14.3556 4.03556C11.4667 3.63556 7.46667 4.39112 6.66667 4.56889L0.977778 0.613339C0.8699 0.548958 0.741951 0.526951 0.618762 0.551588C0.495573 0.576226 0.38593 0.645752 0.311112 0.746672C0.242496 0.853377 0.218045 0.982577 0.242925 1.10698C0.267804 1.23138 0.340067 1.34123 0.444445 1.41334L6.26667 5.50223C6.34376 5.54968 6.43016 5.58 6.52 5.59112ZM17.2756 22.7467C17.5983 23.1304 17.7561 23.6262 17.7144 24.1258C17.6728 24.6255 17.4351 25.0884 17.0533 25.4133L14.8756 27.0133C14.5352 27.2892 14.1135 27.4454 13.6756 27.4578H13.4978C13.249 27.4398 13.0064 27.3715 12.7848 27.2569C12.5633 27.1423 12.3673 26.9838 12.2089 26.7911L11.9867 26.5245C11.7731 26.2712 11.6346 25.9633 11.5867 25.6356C11.2571 25.9298 10.8284 26.0886 10.3867 26.08H10.2222C9.7016 26.0274 9.22263 25.7719 8.88889 25.3689L8.62222 25.0578C8.34636 24.7174 8.19018 24.2957 8.17778 23.8578C8.00428 23.909 7.82518 23.9389 7.64445 23.9467H7.46667C7.21141 23.9291 6.96217 23.8611 6.73333 23.7467C6.50448 23.6323 6.30056 23.4737 6.13333 23.28L5.86667 22.9689C5.59457 22.661 5.43752 22.2684 5.42222 21.8578C5.24873 21.909 5.06962 21.9389 4.88889 21.9467C4.60982 21.9544 4.33266 21.8984 4.07851 21.7829C3.82435 21.6673 3.5999 21.4953 3.42222 21.28L3.15556 20.9689C2.8324 20.577 2.67482 20.0745 2.71632 19.5682C2.75781 19.062 2.99511 18.5918 3.37778 18.2578L5.57333 16.4L1.97333 13.7911L2.49778 13.0711L6.30667 15.8311C6.70085 15.6318 7.14954 15.5674 7.58388 15.6476C8.01822 15.7279 8.41422 15.9485 8.71111 16.2756L8.97778 16.5867C9.08177 16.7093 9.17125 16.8435 9.24444 16.9867C9.43377 17.371 9.4885 17.8077 9.39984 18.2268C9.31118 18.6459 9.08428 19.0231 8.75556 19.2978L6.75556 20.9867L6.71111 21.0311C6.60415 21.107 6.51633 21.2068 6.45461 21.3225C6.3929 21.4382 6.35898 21.5667 6.35556 21.6978C6.33288 21.9549 6.41276 22.2105 6.57778 22.4089L6.84444 22.72C7.01131 22.9215 7.2508 23.0492 7.51111 23.0756C7.63877 23.0975 7.76981 23.0888 7.89344 23.0501C8.01708 23.0115 8.12976 22.9441 8.22222 22.8533L11.9111 19.7422C12.0141 19.6632 12.0998 19.5639 12.1627 19.4503C12.2257 19.3368 12.2647 19.2115 12.2772 19.0823C12.2897 18.9531 12.2755 18.8227 12.2354 18.6992C12.1954 18.5757 12.1304 18.4618 12.0444 18.3645L11.7778 18.0978C11.5688 17.9411 11.3278 17.8323 11.072 17.7793C10.8162 17.7263 10.5518 17.7304 10.2978 17.7911C10.1746 17.8324 10.0401 17.823 9.9238 17.7651C9.80753 17.7072 9.71903 17.6054 9.67778 17.4822C9.63652 17.3591 9.64589 17.2245 9.70382 17.1083C9.76174 16.992 9.86349 16.9035 9.98667 16.8622C10.6978 16.64 12 16.8978 12.4889 17.4756L12.7556 17.7422C13.0902 18.1377 13.2546 18.6495 13.213 19.1659C13.1714 19.6822 12.927 20.1611 12.5333 20.4978L9.55556 23.0311C9.55556 23.0756 9.51111 23.12 9.46667 23.1645C9.26515 23.3313 9.13742 23.5708 9.11111 23.8311C9.09263 23.9587 9.10299 24.0888 9.14145 24.2119C9.17991 24.335 9.24548 24.4479 9.33333 24.5422L9.6 24.8533C9.67588 24.9603 9.77563 25.0481 9.89135 25.1098C10.0071 25.1716 10.1356 25.2055 10.2667 25.2089C10.3943 25.2274 10.5244 25.217 10.6475 25.1786C10.7705 25.1401 10.8834 25.0745 10.9778 24.9867L14.9778 21.52C15.0813 21.4414 15.1675 21.3422 15.2309 21.2287C15.2942 21.1151 15.3334 20.9897 15.3459 20.8603C15.3584 20.7309 15.344 20.6003 15.3036 20.4767C15.2632 20.3531 15.1977 20.2392 15.1111 20.1422L14.8444 19.8311C14.5482 19.6306 14.2208 19.4804 13.8756 19.3867C13.8124 19.3739 13.7524 19.3486 13.6993 19.3122C13.6461 19.2758 13.6008 19.229 13.5661 19.1748C13.5314 19.1205 13.508 19.0598 13.4972 18.9962C13.4865 18.9327 13.4886 18.8677 13.5035 18.805C13.5185 18.7423 13.5459 18.6833 13.5841 18.6314C13.6223 18.5795 13.6706 18.5359 13.726 18.5031C13.7815 18.4702 13.843 18.4489 13.9069 18.4404C13.9707 18.4319 14.0357 18.4363 14.0978 18.4533C14.6534 18.6055 15.1671 18.8821 15.6 19.2622L15.8667 19.5733C16.0363 19.7673 16.1653 19.9934 16.2461 20.2381C16.3269 20.4828 16.3579 20.7412 16.3372 20.998C16.3165 21.2549 16.2445 21.505 16.1255 21.7336C16.0065 21.9622 15.843 22.1646 15.6444 22.3289L12.9778 24.64C12.9445 24.7069 12.8993 24.7671 12.8444 24.8178C12.6727 24.9835 12.5629 25.2031 12.5333 25.44C12.5177 25.6827 12.5975 25.9219 12.7556 26.1067L12.9778 26.3733C13.0484 26.4753 13.1409 26.5601 13.2486 26.6216C13.3563 26.6832 13.4763 26.7198 13.6 26.7289C13.8427 26.7445 14.0819 26.6648 14.2667 26.5067L16.4 24.64C16.4935 24.5642 16.5711 24.4707 16.6283 24.3648C16.6856 24.259 16.7215 24.1429 16.7339 24.0232C16.7463 23.9035 16.7349 23.7825 16.7005 23.6672C16.6661 23.5519 16.6093 23.4445 16.5333 23.3511L16.04 22.8089C15.9575 22.7146 15.9158 22.5914 15.9241 22.4664C15.9325 22.3413 15.9901 22.2247 16.0844 22.1422C16.1787 22.0597 16.302 22.018 16.427 22.0264C16.552 22.0347 16.6686 22.0924 16.7511 22.1867L17.2756 22.7467ZM8.20889 18.7467C8.36047 18.6004 8.46317 18.4109 8.50295 18.2041C8.54273 17.9972 8.51764 17.7832 8.43111 17.5911C8.38667 17.5467 8.34222 17.4578 8.29778 17.4133L8.03111 17.1022C7.94628 16.994 7.83849 16.906 7.71552 16.8445C7.59255 16.783 7.45746 16.7496 7.32 16.7467C7.09424 16.7527 6.87629 16.8306 6.69778 16.9689L4.07556 19.1911C3.89143 19.3589 3.77934 19.5914 3.76277 19.8399C3.7462 20.0884 3.82644 20.3337 3.98667 20.5245L4.20889 20.8356C4.39116 21.0076 4.62549 21.114 4.87494 21.1382C5.1244 21.1623 5.37479 21.1028 5.58667 20.9689L8.20889 18.7467Z" fill="white"/>
</svg>
