<?xml version="1.0" encoding="utf-8"?>
<!-- Generator: Adobe Illustrator 16.0.0, SVG Export Plug-In . SVG Version: 6.00 Build 0)  -->
<!DOCTYPE svg PUBLIC "-//W3C//DTD SVG 1.1//EN" "http://www.w3.org/Graphics/SVG/1.1/DTD/svg11.dtd">
<svg version="1.1" id="icon-twitter" xmlns="http://www.w3.org/2000/svg" xmlns:xlink="http://www.w3.org/1999/xlink" x="0px"
	 y="0px" width="18px" height="18px" viewBox="0 0 18 18" enable-background="new 0 0 18 18" xml:space="preserve">
<title>twitter</title>
<path fill="#27A9E1" d="M17.605,3.229c-0.656,0.293-1.354,0.48-2.068,0.556c0.741-0.45,1.326-1.138,1.59-1.958
	c-0.706,0.415-1.477,0.71-2.279,0.874c-0.687-0.714-1.635-1.116-2.625-1.112c-1.986,0-3.605,1.588-3.605,3.547
	c0,0.291,0.026,0.556,0.08,0.821c-2.89-0.148-5.588-1.49-7.45-3.706C0.93,2.779,0.771,3.388,0.771,4.023
	c0,1.218,0.635,2.303,1.617,2.965C1.812,6.961,1.25,6.808,0.741,6.538v0.053c0,0.45,0.08,0.9,0.239,1.297
	c0.456,1.133,1.453,1.959,2.651,2.198C3.321,10.172,3,10.217,2.677,10.218c-0.238,0-0.451-0.026-0.689-0.054
	c0.451,1.403,1.803,2.436,3.367,2.463c-1.285,0.984-2.861,1.516-4.48,1.508c-0.291,0-0.583-0.025-0.875-0.053
	c1.659,1.043,3.581,1.594,5.541,1.588c5.647,0,9.121-3.891,10.022-7.94c0.159-0.715,0.238-1.43,0.238-2.144v-0.45
	C16.518,4.553,17.127,3.917,17.605,3.229z"/>
</svg>
