<?xml version="1.0" encoding="utf-8"?>
<!-- Generator: Adobe Illustrator 16.0.0, SVG Export Plug-In . SVG Version: 6.00 Build 0)  -->
<!DOCTYPE svg PUBLIC "-//W3C//DTD SVG 1.1//EN" "http://www.w3.org/Graphics/SVG/1.1/DTD/svg11.dtd">
<svg version="1.1" id="Layer_1" xmlns="http://www.w3.org/2000/svg" xmlns:xlink="http://www.w3.org/1999/xlink" x="0px" y="0px"
	 width="18px" height="18px" viewBox="0 0 18 18" enable-background="new 0 0 18 18" xml:space="preserve">
<path fill="#27A9E1" d="M17.213,6.191c0,0-0.148-1.2-0.65-1.725c-0.625-0.7-1.352-0.7-1.651-0.725
	c-2.328-0.175-5.809-0.175-5.809-0.175s-3.481,0-5.81,0.175c-0.326,0.05-1.027,0.05-1.653,0.725c-0.5,0.525-0.651,1.725-0.651,1.725
	s-0.175,1.4-0.175,2.8v0.175v1.15c0,1.397,0.175,2.799,0.175,2.799s0.15,1.201,0.651,1.725c0.626,0.701,1.453,0.676,1.828,0.75
	c1.327,0.125,5.659,0.176,5.659,0.176s3.479,0,5.81-0.176c0.324-0.049,1.025-0.049,1.652-0.725c0.5-0.525,0.65-1.725,0.65-1.725
	s0.176-1.4,0.176-2.8V9.267v-0.25C17.389,7.591,17.213,6.191,17.213,6.191z M11.855,9.491l-4.483,2.425V8.191V7.066l2.028,1.1
	L11.855,9.491z"/>
</svg>
