<?xml version="1.0" encoding="utf-8"?>
<!-- Generator: Adobe Illustrator 16.0.0, SVG Export Plug-In . SVG Version: 6.00 Build 0)  -->
<!DOCTYPE svg PUBLIC "-//W3C//DTD SVG 1.1//EN" "http://www.w3.org/Graphics/SVG/1.1/DTD/svg11.dtd">
<svg version="1.1" id="icon-instagram" xmlns="http://www.w3.org/2000/svg" xmlns:xlink="http://www.w3.org/1999/xlink" x="0px"
	 y="0px" width="18px" height="18px" viewBox="0 0 18 18" enable-background="new 0 0 18 18" xml:space="preserve">
<title>instagram</title>
<path fill="#27A9E1" d="M13.877,0.725H3.686c-1.768,0.001-3.201,1.432-3.206,3.2V14.1c0,1.775,1.428,3.2,3.206,3.2h10.191
	c1.768-0.002,3.2-1.433,3.205-3.2V3.925C17.082,2.15,15.63,0.725,13.877,0.725z M14.805,2.625h0.375V5.45h-2.805v-2.8L14.805,2.625z
	 M6.415,7.3c0.553-0.763,1.436-1.218,2.379-1.225c0.978,0,1.828,0.475,2.379,1.225c0.075,0.1,0.125,0.175,0.175,0.275
	C11.598,8,11.725,8.475,11.725,9c0,1.6-1.303,2.925-2.931,2.925c-1.603,0-2.93-1.3-2.93-2.925c0-0.525,0.15-1,0.376-1.425
	C6.29,7.5,6.34,7.4,6.415,7.3z M15.455,14.1c0,0.875-0.727,1.601-1.604,1.601H3.686C2.804,15.694,2.09,14.982,2.083,14.1V7.325h2.48
	c-0.051,0.15-0.126,0.3-0.151,0.475c-0.1,0.4-0.175,0.8-0.175,1.225c0,2.5,2.028,4.525,4.532,4.525
	c2.5,0.002,4.53-2.024,4.531-4.525l0,0c0-0.425-0.05-0.85-0.175-1.225c-0.05-0.15-0.1-0.325-0.15-0.475h2.479L15.455,14.1
	L15.455,14.1z"/>
</svg>
