<svg width="73" height="74" viewBox="0 0 73 74" fill="none" xmlns="http://www.w3.org/2000/svg">
<path d="M36.5 0.48999C29.2814 0.489991 22.2249 2.63043 16.2227 6.64066C10.2206 10.6509 5.54226 16.3508 2.77937 23.0197C0.0164778 29.6887 -0.706928 37.0271 0.700622 44.1071C2.10817 51.1871 5.58347 57.6908 10.6871 62.7959C15.7907 67.9009 22.2934 71.3779 29.3731 72.7874C36.4527 74.1969 43.7914 73.4755 50.461 70.7145C57.1307 67.9534 62.8319 63.2767 66.8438 57.2756C70.8557 51.2745 72.998 44.2186 73 37C72.9921 27.3211 69.1443 18.0408 62.3013 11.1958C55.4582 4.35088 46.1789 0.500582 36.5 0.48999ZM22.87 42C22.96 41.7 23.16 41.31 23.26 41L39.37 8.88999C41.24 5.13999 40.55 6.31999 41.54 4.73999C40.95 8.73999 38.48 23.28 36.99 32.26C40.55 32.26 46.48 32.16 50.04 32.16C49.949 32.3287 49.8489 32.4922 49.74 32.65L34.62 63.32C32.55 67.46 32.15 68.45 31.62 69.24C32.01 67.24 33.5 57.11 34.98 47.94C35.37 45.87 35.27 46.56 35.98 41.94C31.46 42 29.95 41.92 22.87 42ZM2.00002 37C2.0106 27.8533 5.64881 19.0842 12.1165 12.6165C18.5842 6.14879 27.3533 2.51058 36.5 2.49999C37.8134 2.50069 39.1256 2.57748 40.43 2.72999L20 43.73H33.83L29.78 69.83L29.68 70.83C21.8736 69.2461 14.8543 65.0135 9.81013 58.8487C4.766 52.6838 2.00695 44.9655 2.00002 37ZM36.5 71.5C35.1867 71.4993 33.8745 71.4225 32.57 71.27L53 30.27H39.17L43.22 4.13999L43.32 3.13999C51.7087 4.83062 59.1697 9.57853 64.2541 16.4617C69.3385 23.3448 71.6834 31.8719 70.8334 40.3869C69.9834 48.902 65.9992 56.7972 59.6545 62.5394C53.3097 68.2817 45.0574 71.461 36.5 71.46V71.5Z" fill="white"/>
</svg>
