<svg width="41" height="41" viewBox="0 0 41 41" fill="none" xmlns="http://www.w3.org/2000/svg">
<path d="M17.6244 40.9516L16.3071 39.9847L16.3644 39.4159L18.7126 24.3434H10.6943L22.8935 0L24.2108 0.966912L24.1535 1.53568L21.8053 16.6081H29.8236L17.6244 40.9516ZM12.5843 22.8078C12.5271 22.9784 12.4125 23.2059 12.3553 23.3765C16.4789 23.3196 17.338 23.3765 19.9726 23.3196C19.5717 25.9929 19.6289 25.5947 19.3999 26.7892C18.5408 32.0787 17.6817 37.9371 17.4526 39.0746C17.7389 38.6196 17.968 38.0508 19.1708 35.662L27.9336 17.9732C28.0481 17.8026 27.9335 17.9732 28.1054 17.6888C26.0435 17.6888 22.6072 17.7457 20.5453 17.7457C21.4044 12.5699 22.8362 4.15203 23.1799 1.87695C22.6071 2.78698 23.0081 2.10446 21.9199 4.26579L12.5843 22.8078Z" fill="#06A7E0"/>
<path d="M21.748 0.0568786C18.3689 -0.17063 14.8753 0.398142 11.5534 1.87695C9.60613 2.78698 7.5443 4.15204 6.62793 5.06207C6.97157 5.34646 7.20066 5.51709 7.48703 5.68772C9.54886 3.92453 11.0952 3.07137 13.2143 2.27509C15.6771 1.2513 18.0253 1.02379 21.2899 0.910036C21.6335 0.341265 21.2899 0.966914 21.748 0.0568786Z" fill="#06A7E0"/>
<path d="M39.1017 11.8873C36.3526 5.9721 31.198 2.04758 25.2989 0.568771C25.2416 1.02379 25.1844 1.08067 25.1271 1.64944C25.9862 1.87695 26.8453 2.21821 27.8189 2.55947C32.6299 4.4933 35.9517 8.30407 38.1854 12.2855C40.1899 17.4044 40.5336 21.9546 38.7008 27.3011C35.7226 34.1832 32.229 36.572 27.3607 38.6765C25.4707 39.4159 22.7789 40.0415 19.6861 39.8709C19.5716 39.8709 19.4571 39.8709 19.2852 39.8709C19.0561 40.2691 18.9989 40.3828 18.7698 40.9516C22.1489 41.1791 25.6426 40.6103 28.9644 39.1315C39.3881 34.3538 43.8554 22.1252 39.1017 11.8873Z" fill="#06A7E0"/>
<path d="M15.2762 39.2453C12.3553 38.3921 9.26252 36.7427 6.28432 33.9557C4.90977 32.5338 3.01975 29.633 2.21793 27.4148C1.93156 27.4717 1.6452 27.4717 1.18701 27.5286C1.35883 27.9836 1.53065 28.3817 1.70247 28.8367C4.27976 34.6382 9.26252 38.6765 14.9898 40.3259H15.0471C15.1617 39.7572 15.2189 39.7003 15.2762 39.2453Z" fill="#06A7E0"/>
<path d="M4.68064 6.54088L5.25337 5.7446L6.85702 6.82526L5.71156 8.41783L4.10791 7.33716C4.68064 6.54088 4.16518 7.33716 4.68064 6.54088Z" fill="#86C24B"/>
<path d="M2.5617 9.61225L3.01989 8.75909L4.73808 9.66913L3.82171 11.3754L2.10352 10.4654C2.5617 9.61225 2.10352 10.4654 2.5617 9.61225Z" fill="#FCD40B"/>
<path d="M0.900768 13.1386L1.24441 12.2286L3.07715 12.9111L2.38987 14.7312L0.557129 14.0487C0.900768 13.1386 0.499856 14.0487 0.900768 13.1386Z" fill="#FAA81E"/>
<path d="M1.24434 17.5751C1.30161 17.0632 1.41616 16.5513 1.58798 15.9256C0.957973 15.8119 1.24434 15.8687 0.614334 15.6981C-0.473856 19.9639 -0.0729437 24.3434 1.47343 28.268C1.47343 28.268 1.47343 28.3248 1.5307 28.3248C1.98889 28.0973 2.10344 28.0405 2.44707 27.8698C1.18707 24.1159 0.786153 22.0683 1.24434 17.5751Z" fill="#06A7E0"/>
</svg>
