<svg width="44" height="40" viewBox="0 0 44 40" fill="none" xmlns="http://www.w3.org/2000/svg">
<path d="M15.6165 34.7671V32.9176C15.6165 32.9176 18.3608 30.8892 18.3608 28.3239V24.6847" stroke="#06A7E0" stroke-miterlimit="10"/>
<path d="M8.27839 13.7671L3.68464 17.4063C2.37214 18.5995 1.83521 19.2557 1.83521 21.0455V27.25V34.7671" stroke="#06A7E0" stroke-miterlimit="10"/>
<path d="M1 39.3608V34.767H17.4063V39.3608" stroke="#06A7E0" stroke-miterlimit="10"/>
<path d="M5.59375 23.8494C5.59375 23.8494 11.2017 18.2415 12.8722 16.571C14.5426 14.9006 17.1676 19.0767 15.1392 21.5824C14.125 22.5966 12.8722 23.8494 12.8722 23.8494C12.8722 24.267 12.8722 26.2358 12.8722 26.5937C12.8722 30.1733 9.76989 30.2329 9.23295 30.2329" stroke="#06A7E0" stroke-miterlimit="10"/>
<path d="M8.27832 20.1506V1H42.9999V24.7443H12.8721" stroke="#06A7E0" stroke-miterlimit="10"/>
<path d="M8.27832 1L13.767 8.27841H37.5113L42.9999 1" stroke="#06A7E0" stroke-miterlimit="10"/>
<path d="M26.7728 5.77269H24.5654V3.56531H26.7728C26.7728 5.77269 26.7728 3.56531 26.7728 5.77269Z" fill="#FCD40B"/>
<path d="M31.2472 5.77269H29.0398V3.56531H31.2472C31.2472 5.77269 31.2472 3.56531 31.2472 5.77269Z" fill="#FAA81E"/>
<path d="M22.2386 5.77269H20.0313V3.56531H22.2386C22.2386 5.77269 22.2386 3.56531 22.2386 5.77269Z" fill="#86C24B"/>
</svg>
