<svg width="35" height="34" viewBox="0 0 35 34" fill="none" xmlns="http://www.w3.org/2000/svg">
<path d="M17.5 0C14.1888 0 10.952 0.981882 8.19884 2.82148C5.44568 4.66108 3.29986 7.27577 2.03272 10.3349C0.765585 13.394 0.434044 16.7602 1.08003 20.0078C1.72601 23.2554 3.3205 26.2384 5.66186 28.5798C8.00323 30.9212 10.9863 32.5157 14.2339 33.1616C17.4814 33.8076 20.8476 33.4761 23.9068 32.209C26.9659 30.9418 29.5806 28.796 31.4202 26.0428C33.2598 23.2897 34.2417 20.0529 34.2417 16.7417C34.2356 12.3034 32.4699 8.04854 29.3315 4.91018C26.1931 1.77181 21.9383 0.00602623 17.5 0ZM17.5 32.3444C14.4141 32.3444 11.3974 31.4294 8.83157 29.7149C6.2657 28.0004 4.26586 25.5636 3.08492 22.7126C1.90398 19.8616 1.59499 16.7244 2.19703 13.6977C2.79907 10.6711 4.28509 7.89092 6.46718 5.70884C8.64926 3.52675 11.4294 2.04073 14.4561 1.43869C17.4827 0.836655 20.6199 1.14564 23.4709 2.32658C26.322 3.50752 28.7588 5.50736 30.4732 8.07323C32.1877 10.6391 33.1028 13.6557 33.1028 16.7417C33.0992 20.8787 31.4541 24.8452 28.5288 27.7705C25.6035 30.6958 21.637 32.3408 17.5 32.3444ZM18.2836 16.0948L18.0376 16.0219V8.76944L18.4339 8.83322C19.9002 9.03281 21.2273 9.80616 22.1239 10.9834L22.2697 11.1702L23.2673 10.2591L23.1352 10.0997C22.5482 9.37647 21.8211 8.77933 20.9975 8.34408C20.174 7.90883 19.271 7.64444 18.3428 7.56678L18.0376 7.53489V5.084H16.7438V7.503L16.434 7.53033C13.3955 7.80367 11.3591 9.70789 11.3591 12.2727C11.3591 15.2247 13.687 16.1494 16.5023 16.974L16.7438 17.0469V25.1922L16.3611 25.1376C14.6026 24.8932 13.0015 23.9934 11.8785 22.6183L11.7327 22.4452L10.7122 23.3563L10.8398 23.5203C11.526 24.3571 12.3765 25.0442 13.3386 25.5394C14.3008 26.0346 15.3543 26.3273 16.434 26.3994L16.7438 26.4268V28.7911H18.0376V26.3994L18.3473 26.3676C23.2081 25.912 23.5862 22.4224 23.5862 21.3564C23.5862 17.9489 20.9668 16.8874 18.2836 16.0948ZM16.7438 9.12478V15.6574L16.2882 15.5162C14.466 14.9468 12.7167 14.227 12.7167 12.2727C12.7167 10.4778 14.1745 9.08378 16.3611 8.78767L16.7438 8.733V9.12478ZM18.4111 25.1148L18.0285 25.1603V17.4159L18.484 17.5571C20.7253 18.2814 22.215 19.2062 22.215 21.3656C22.215 22.3496 21.846 24.6866 18.4111 25.1148Z" fill="white"/>
</svg>
