<svg width="88" height="60" viewBox="0 0 88 60" fill="none" xmlns="http://www.w3.org/2000/svg">
<path d="M84.85 44.16C83.46 42.63 80.3 41.16 71.97 38.21C70.33 37.59 70.33 37.59 70.33 36.21V36.08C74.62 35.56 78.16 32.54 78.41 32.42C78.79 32.04 79.04 31.52 78.79 31.14C78.7254 30.9128 78.5968 30.709 78.4194 30.5529C78.2421 30.3969 78.0236 30.2952 77.79 30.26C77.79 30.26 75.27 29.26 75.27 20.16C75.14 12.94 70.47 7.64001 64.16 7.64001C62.7891 7.64722 61.4339 7.93179 60.1759 8.47658C58.9179 9.02137 57.7832 9.81511 56.84 10.81V9.81001C56.84 4.37001 54.31 2.81001 51.91 2.61001C50.65 0.830013 48.51 0.200012 44.97 0.200012C43.0173 0.282356 41.0944 0.708905 39.29 1.46001C37.9289 2.18896 36.4138 2.58317 34.87 2.61001C34.12 2.61001 32.6 2.99001 31.97 5.25001C31.6872 6.67081 31.52 8.1122 31.47 9.56001C30.3184 9.53674 29.1895 9.2348 28.18 8.68001C26.753 8.03367 25.2065 7.69304 23.64 7.68001C19.98 7.68001 18.21 8.56001 17.33 9.58001C14 9.91001 14 13.07 14 15.46C14 16.46 14.12 18.25 14.25 19.46C14.25 19.96 14.38 20.46 14.38 20.86C13.8186 21.5339 13.423 22.33 13.2251 23.1845C13.0271 24.0389 13.0322 24.9279 13.24 25.78C13.5553 27.3256 14.4589 28.6882 15.76 29.58C15.89 29.7 16.14 29.7 16.27 29.83C16.6741 31.3298 17.269 32.7716 18.04 34.12V36.12C18.04 37.63 18.04 37.63 16.4 38.12C7.69001 41.12 4.53001 42.54 3.14001 44.07C1.25001 46.07 0.620014 49.37 0.490014 51.27C0.418132 51.7001 0.449559 52.1411 0.581703 52.5567C0.713847 52.9722 0.942919 53.3504 1.25001 53.66C1.54173 53.9707 1.89311 54.2194 2.28314 54.3913C2.67317 54.5631 3.09385 54.6545 3.52001 54.66H14.42C14.2804 55.2444 14.1934 55.8401 14.16 56.44C14.1453 56.8606 14.2166 57.2798 14.3696 57.6719C14.5227 58.0639 14.7542 58.4206 15.05 58.72C15.3417 59.0307 15.6931 59.2794 16.0831 59.4513C16.4732 59.6231 16.8938 59.7145 17.32 59.72H70.59C71.0162 59.7145 71.4369 59.6231 71.8269 59.4513C72.2169 59.2794 72.5683 59.0307 72.86 58.72C73.437 58.1023 73.7524 57.2852 73.74 56.44C73.74 55.94 73.61 55.44 73.61 54.8H84.47C84.8978 54.8048 85.3217 54.7181 85.7132 54.5456C86.1047 54.3731 86.4548 54.1189 86.74 53.8C87.2405 53.0553 87.5053 52.1772 87.5 51.28C87.25 49.59 86.62 46.3 84.85 44.16ZM14.42 52.37H3.56001C3.46305 52.3696 3.36749 52.3469 3.28077 52.3035C3.19404 52.2601 3.1185 52.1974 3.06001 52.12C2.93001 51.99 2.93001 51.87 2.93001 51.61C3.04001 49.5132 3.75941 47.494 5.00001 45.8C6.26001 44.41 10.43 42.8 16.86 40.49C19.64 39.49 20.15 38.49 20.15 36.07V33.67C20.1532 33.5032 20.1209 33.3377 20.0554 33.1843C19.9899 33.0309 19.8927 32.8931 19.77 32.78C18.984 31.393 18.3886 29.9062 18 28.36C18 27.86 17.37 27.47 16.86 27.47C16.4869 27.2062 16.172 26.8686 15.9346 26.4781C15.6973 26.0877 15.5425 25.6527 15.48 25.2C15.3531 24.7984 15.3205 24.373 15.3846 23.9568C15.4488 23.5406 15.608 23.1447 15.85 22.8C16.74 22.55 16.74 22.04 16.61 19.38C16.49 18.13 16.49 16.38 16.49 15.46C16.49 12.18 16.86 11.92 18 11.92C18.2076 11.9185 18.4107 11.8598 18.5871 11.7504C18.7635 11.6411 18.9063 11.4852 19 11.3C19.13 11.05 20 10.04 23.54 10.04C24.7731 10.0487 25.9864 10.3503 27.08 10.92C28.3799 11.5451 29.798 11.886 31.24 11.92C31.24 11.92 31.37 11.92 31.37 12.18V12.3C31.3808 13.6103 31.4642 14.919 31.62 16.22V16.86C30.32 18 29.69 20.4 30.19 22.8C30.5102 24.1586 31.1631 25.4164 32.09 26.46C31.8584 26.9157 31.5142 27.3047 31.09 27.59C30.7884 27.5446 30.4806 27.6111 30.2246 27.7768C29.9686 27.9426 29.782 28.1962 29.7 28.49C29.3029 30.0334 28.7079 31.5191 27.93 32.91C27.8063 33.0223 27.7084 33.1599 27.6428 33.3135C27.5772 33.4671 27.5455 33.6331 27.55 33.8V36.2C27.55 38.2 27.93 39.2 29.55 40.11C22.49 42.76 19.08 44.54 17.31 46.3C15.848 48.0458 14.8536 50.1345 14.42 52.37ZM33.35 38.71C32.84 38.59 32.35 38.34 31.83 38.21C30.19 37.59 30.19 37.59 30.19 36.21V34.21C30.9781 32.851 31.5865 31.3956 32 29.88C32.7981 29.5539 33.4636 28.9694 33.89 28.22C34.0905 30.0044 34.6519 31.7294 35.54 33.29V35.93C35.62 38 35.5 38 33.35 38.71ZM71.09 57.17C71.031 57.2468 70.9554 57.3092 70.8688 57.3525C70.7821 57.3958 70.6868 57.4189 70.59 57.42H17.32C17.2218 57.4189 17.125 57.3959 17.0367 57.3527C16.9485 57.3094 16.871 57.247 16.81 57.17C16.69 57.05 16.69 56.92 16.69 56.67C16.94 52.75 17.95 49.59 19.46 47.95C20.97 46.31 25.27 44.28 33.73 41.25C33.8237 41.2367 33.911 41.1948 33.98 41.13C37.64 39.86 37.89 38.71 37.89 35.82V32.82C37.895 32.6554 37.8645 32.4916 37.8006 32.3398C37.7368 32.188 37.6411 32.0516 37.52 31.94C37.01 31.42 36.25 28.53 36 26.38C36.0043 26.2004 35.9601 26.023 35.8721 25.8664C35.7842 25.7098 35.6556 25.5798 35.5 25.49C35.24 25.37 35.12 25.24 34.86 25.24H34.61C33.5005 24.4814 32.7323 23.3183 32.47 22C32.2678 21.4341 32.2077 20.8272 32.2948 20.2327C32.382 19.6381 32.6139 19.074 32.97 18.59C33.97 18.34 33.97 17.71 33.85 15.8C33.73 14.17 33.6 11.51 33.6 9.49001C33.5712 8.228 33.7057 6.96756 34 5.74001C34.13 5.22001 34.38 4.86001 34.51 4.86001C36.3453 4.80592 38.1496 4.37356 39.81 3.59001C41.2642 2.87191 42.8586 2.4827 44.48 2.45001C48.39 2.45001 49.27 3.34001 49.78 4.21001C49.8827 4.3903 50.0271 4.54338 50.2011 4.65646C50.375 4.76954 50.5736 4.83934 50.78 4.86001C52.42 4.86001 53.93 5.49001 53.93 9.53001C53.93 10.8 53.81 12.82 53.68 14.59C53.43 18 53.43 18.38 54.44 18.59C54.8044 19.0947 55.0503 19.6751 55.1594 20.288C55.2685 20.9009 55.2379 21.5306 55.07 22.13C54.9678 22.7647 54.7379 23.372 54.3941 23.9151C54.0503 24.4583 53.5999 24.926 53.07 25.29C52.7337 25.1995 52.3754 25.2425 52.07 25.41C51.9314 25.5173 51.8156 25.6514 51.7298 25.8043C51.6439 25.9572 51.5896 26.1257 51.57 26.3C51.31 28.57 50.57 31.3 50.05 31.86C49.9276 31.9711 49.8304 32.1072 49.7649 32.2589C49.6993 32.4107 49.667 32.5747 49.67 32.74V35.74C49.67 38.51 50.05 39.74 53.59 41.05C62.29 44.2 66.59 46.05 68.23 47.87C69.87 49.69 70.75 52.67 71 56.59C71.22 56.92 71.09 57.05 71.09 57.17ZM57.58 36.17C57.58 37.68 57.58 37.68 55.94 38.17C55.44 38.3 54.94 38.55 54.43 38.67C52.28 37.92 52.28 37.92 52.28 35.78V34.17C53.9181 35.1438 55.7106 35.8303 57.58 36.2V36.17ZM84.85 52.12C84.7895 52.1976 84.7121 52.2604 84.6238 52.3037C84.5354 52.347 84.4384 52.3697 84.34 52.37H73.11C72.669 50.1351 71.6716 48.0474 70.21 46.3C68.44 44.41 65 42.63 58 40.11C59.77 39.22 60 38.21 60 36.2V34.92C59.9974 34.5876 59.8635 34.2697 59.6275 34.0355C59.3914 33.8014 59.0725 33.67 58.74 33.67C56.6637 33.5847 54.652 32.9234 52.93 31.76C53.4206 30.4125 53.756 29.0135 53.93 27.59C54.8734 27.1014 55.6933 26.4045 56.3274 25.5521C56.9615 24.6997 57.3933 23.7141 57.59 22.67C58.1 20.26 57.47 17.75 56.21 16.67C56.2 16.164 56.2402 15.6581 56.33 15.16C56.9763 13.6732 58.0301 12.3997 59.3697 11.4866C60.7093 10.5735 62.2799 10.0581 63.9 10C68.69 10 72.48 14.29 72.48 20.11C72.48 26.92 73.87 29.96 75.13 31.47C73.2653 32.7565 71.0819 33.5039 68.82 33.63C68.4876 33.63 68.1686 33.7614 67.9326 33.9955C67.6966 34.2297 67.5627 34.5476 67.56 34.88V36.2C67.56 38.59 68.06 39.61 70.84 40.62C77.28 42.88 81.57 44.62 82.7 45.92C83.9374 47.6144 84.6345 49.6429 84.7 51.74C84.7366 51.7528 84.77 51.7734 84.7979 51.8002C84.8259 51.8271 84.8477 51.8596 84.8619 51.8957C84.8762 51.9318 84.8825 51.9705 84.8804 52.0092C84.8783 52.0479 84.868 52.0857 84.85 52.12Z" fill="white"/>
</svg>
