<svg width="28" height="44" viewBox="0 0 28 44" fill="none" xmlns="http://www.w3.org/2000/svg">
<path d="M6.38618 20.4265C6.38618 19.8819 6.08359 19.7003 5.65996 19.7003C5.23633 19.7003 4.93374 19.9424 4.75218 20.1845V22.9078H3.66284V17.3401H4.75218V19.3977C4.99425 19.0951 5.53892 18.7925 6.20463 18.7925C7.11241 18.7925 7.53604 19.2767 7.53604 20.0634V22.9683H6.38618V20.4265Z" fill="#06A7E0"/>
<path d="M10.3804 18.7321C11.5907 18.7321 12.438 19.6398 12.438 20.9712V21.2133H9.41206C9.47258 21.6975 9.89621 22.1816 10.5619 22.1816C10.925 22.1816 11.4092 22.0606 11.6513 21.758L12.1354 22.4237C11.7118 22.7868 11.1066 22.9684 10.4409 22.9684C9.23051 22.9684 8.26221 22.1211 8.26221 20.8502C8.26221 19.7004 9.10947 18.7321 10.3804 18.7321ZM9.35154 20.4871H11.3487C11.3487 20.124 11.0461 19.5793 10.3804 19.5793C9.71466 19.5793 9.41206 20.0635 9.35154 20.4871Z" fill="#06A7E0"/>
<path d="M13.1643 17.2796H14.2536V22.8473H13.1643V17.2796Z" fill="#06A7E0"/>
<path d="M15.2825 17.2796H16.3718V22.8473H15.2825V17.2796Z" fill="#06A7E0"/>
<path d="M17.1584 20.8502C17.1584 19.7004 17.9452 18.7321 19.2766 18.7321C20.608 18.7321 21.3948 19.7004 21.3948 20.8502C21.3948 22.0001 20.608 22.9684 19.2766 22.9684C17.9452 22.9684 17.1584 22.0001 17.1584 20.8502ZM20.3054 20.8502C20.3054 20.245 19.9423 19.7004 19.2766 19.7004C18.6109 19.7004 18.2478 20.245 18.2478 20.8502C18.2478 21.5159 18.6109 22.0606 19.2766 22.0606C19.9423 22.0606 20.3054 21.4554 20.3054 20.8502Z" fill="#06A7E0"/>
<path d="M22.7263 21.6369C23.0894 21.6369 23.392 21.9395 23.392 22.3026C23.392 22.6658 23.0894 22.9683 22.7263 22.9683C22.3631 22.9683 22.0605 22.6658 22.0605 22.3026C22.0605 21.9395 22.3631 21.6369 22.7263 21.6369Z" fill="#06A7E0"/>
<path d="M23.9366 35.9798H3.54175" stroke="#00ADE6" stroke-miterlimit="10"/>
<path d="M3.54175 5.41786H23.9366" stroke="#00ADE6" stroke-miterlimit="10"/>
<path d="M21.9395 43H5.53891C2.99712 43 1 40.9424 1 38.4611V5.5389C1 2.99712 2.99712 1 5.53891 1H22C24.4813 1 26.5389 2.99712 26.5389 5.5389V38.4611C26.4784 40.9424 24.4813 43 21.9395 43Z" stroke="#00ADE6" stroke-miterlimit="10"/>
<path d="M13.7695 41.1239C14.6719 41.1239 15.4035 40.3924 15.4035 39.4899C15.4035 38.5875 14.6719 37.8559 13.7695 37.8559C12.8671 37.8559 12.1355 38.5875 12.1355 39.4899C12.1355 40.3924 12.8671 41.1239 13.7695 41.1239Z" stroke="#00ADE6" stroke-miterlimit="10"/>
<path d="M11.2278 3.23921H16.2508" stroke="#00ADE6" stroke-miterlimit="10"/>
<path d="M10.3198 26.9625H8.26221V24.9049H10.3198C10.3198 26.9625 10.3198 24.9049 10.3198 26.9625Z" fill="#FCD40B"/>
<path d="M14.5562 26.9625H12.4985V24.9049H14.5562C14.5562 26.9625 14.5562 24.9049 14.5562 26.9625Z" fill="#FAA81E"/>
<path d="M6.14406 26.9625H4.08643V24.9049H6.14406C6.14406 26.9625 6.14406 24.9049 6.14406 26.9625Z" fill="#86C24B"/>
</svg>
