<svg width="41" height="41" viewBox="0 0 41 41" fill="none" xmlns="http://www.w3.org/2000/svg">
<path d="M27.5064 6.95624H23.5704V4.55546C23.5625 4.47708 23.5391 4.40107 23.5014 4.33187C23.4638 4.26268 23.4127 4.20169 23.3512 4.15248C23.2897 4.10327 23.2189 4.06682 23.1432 4.04528C23.0674 4.02374 22.9881 4.01753 22.9099 4.02702H15.8898C15.8116 4.01753 15.7323 4.02374 15.6565 4.04528C15.5807 4.06682 15.51 4.10327 15.4485 4.15248C15.387 4.20169 15.3359 4.26268 15.2983 4.33187C15.2606 4.40107 15.2371 4.47708 15.2292 4.55546V6.94713H11.2932C10.9151 6.94713 10.6281 7.17035 10.6281 7.46646V36.7131C10.6366 36.7917 10.6606 36.8678 10.6987 36.937C10.7368 37.0063 10.7883 37.0672 10.8502 37.1164C10.9121 37.1655 10.9831 37.2019 11.0592 37.2234C11.1352 37.2449 11.2148 37.2511 11.2932 37.2416H27.5064C27.5846 37.2511 27.664 37.2448 27.7397 37.2233C27.8155 37.2018 27.8862 37.1653 27.9477 37.1161C28.0092 37.0669 28.0603 37.0059 28.098 36.9367C28.1356 36.8675 28.1591 36.7915 28.167 36.7131V7.47557C28.167 7.17946 27.8846 6.95624 27.5064 6.95624ZM16.2816 5.2889V5.09757C16.348 5.0881 16.4155 5.0881 16.482 5.09757H22.5546C22.564 5.16405 22.564 5.23154 22.5546 5.29802V6.96535H16.2816V5.2889ZM27.1238 35.9478C27.1273 36.013 27.1273 36.0784 27.1238 36.1437C27.0556 36.1501 26.987 36.1501 26.9188 36.1437H12.0677C11.6759 36.1437 11.6759 36.1437 11.6759 35.6881V8.1589C11.6732 8.10731 11.6732 8.05561 11.6759 8.00402H26.7821C27.0873 8.00402 27.0873 8.00402 27.1238 8.29557V35.9478ZM20.6686 19.5478L25.0556 17.803L17.3658 30.7545L18.9967 24.2673L19.0513 24.0487L18.8463 24.1307L14.2133 25.9666L21.7619 13.8943L20.5 19.4111L20.4499 19.6207L20.6686 19.5478Z" fill="white"/>
</svg>
