<svg width="151" height="37" viewBox="0 0 151 37" fill="none" xmlns="http://www.w3.org/2000/svg">
<path d="M17.7641 15.9714C13.5395 14.7351 12.285 14.0135 12.285 12.296C12.285 11.0653 13.3008 9.99682 15.9876 9.99682C18.0696 9.91034 20.1023 10.6494 21.6499 12.0555C21.8165 12.2289 22.0885 12.0891 22.2051 11.9884L24.5755 9.51013C24.7142 9.37587 24.6476 9.20245 24.5088 8.99546C22.6714 6.56758 19.2684 5.7788 16.0376 5.7788C11.1358 5.7788 7.36098 8.01648 7.36098 12.3576C7.36098 16.7826 10.2865 18.7014 15.8045 20.3517C18.9687 21.2747 20.7007 21.9964 20.7007 23.7418C20.7007 25.4871 18.7244 26.4158 16.2597 26.4158C13.6395 26.4158 11.2635 25.8564 9.30948 23.7753C9.21511 23.6467 8.94309 23.7082 8.80431 23.8816L6.28404 26.7291C6.25692 26.8051 6.25246 26.8874 6.2712 26.9659C6.28994 27.0444 6.33107 27.1157 6.38951 27.171C8.70439 29.7499 12.3127 30.7401 15.9488 30.7401C21.0615 30.7401 25.4526 28.5024 25.4526 23.6467C25.4526 18.9755 22.5548 17.3979 17.7585 15.9994" fill="#0087FF"/>
<path d="M50.0003 6.19277H45.748C45.6497 6.19146 45.5541 6.22575 45.4787 6.28939C45.4034 6.35304 45.3531 6.44182 45.3372 6.53961V20.9391C45.3372 24.055 44.2269 26.0466 40.4743 26.0466C36.9326 26.0466 35.6391 24.2676 35.6391 21.0733V6.64031C35.6391 6.46689 35.5004 6.19277 35.2616 6.19277H31.0871C30.9784 6.20825 30.8786 6.2614 30.8046 6.34308C30.7306 6.42476 30.6872 6.52987 30.6819 6.64031V21.7446C30.6819 27.5067 34.3568 30.5611 40.4188 30.5611C46.4808 30.5611 50.35 27.4339 50.35 21.6383V6.53402C50.3448 6.44467 50.3077 6.36024 50.2454 6.29644C50.1831 6.23264 50.0999 6.19381 50.0114 6.18718" fill="#0087FF"/>
<path d="M66.0267 5.88509C60.0036 5.88509 56.09 9.00665 56.09 14.7966V29.901C56.0964 29.9908 56.1347 30.0753 56.1979 30.139C56.2611 30.2027 56.345 30.2413 56.4341 30.2478H60.6864C60.7835 30.2467 60.8771 30.2114 60.9511 30.1481C61.0251 30.0847 61.0748 29.9973 61.0917 29.901V15.5183C61.0917 12.4023 62.2019 10.4052 65.9601 10.4052C69.4907 10.4052 70.7897 12.1953 70.7897 15.384V29.8227C70.7897 29.9961 70.9285 30.2702 71.1672 30.2702H75.3529C75.4625 30.2559 75.5637 30.2033 75.6388 30.1215C75.7139 30.0397 75.7581 29.9339 75.7637 29.8227V14.7183C75.7637 8.95631 72.0887 5.90747 66.0267 5.90747" fill="#0087FF"/>
<path d="M119.147 6.19277H114.911C114.814 6.1928 114.72 6.22769 114.645 6.29122C114.571 6.35474 114.522 6.44278 114.506 6.53961V20.9391C114.506 24.055 113.396 26.0466 109.638 26.0466C106.096 26.0466 104.808 24.2676 104.808 21.0733V6.64031C104.808 6.46689 104.669 6.19277 104.43 6.19277H100.245C100.135 6.20705 100.034 6.25968 99.9588 6.34147C99.8838 6.42327 99.8396 6.52903 99.834 6.64031V21.7446C99.834 27.5067 103.509 30.5611 109.565 30.5611C115.622 30.5611 119.502 27.4339 119.502 21.6383V6.53402C119.498 6.44426 119.461 6.35916 119.399 6.29511C119.336 6.23107 119.252 6.19262 119.163 6.18718" fill="#0087FF"/>
<path d="M135.173 5.88509C129.156 5.88509 125.242 9.00665 125.242 14.7966V29.901C125.247 29.9894 125.283 30.0732 125.345 30.1368C125.406 30.2005 125.488 30.2399 125.575 30.2478H129.833C129.931 30.248 130.026 30.2133 130.101 30.1499C130.176 30.0864 130.227 29.9983 130.244 29.901V15.5183C130.244 12.4023 131.354 10.4052 135.101 10.4052C138.648 10.4052 139.942 12.1953 139.942 15.384V29.8227C139.942 29.9961 140.075 30.2702 140.319 30.2702H144.499C144.61 30.2571 144.713 30.205 144.789 30.1231C144.865 30.0412 144.91 29.9348 144.916 29.8227V14.7183C144.916 8.95631 141.235 5.90747 135.173 5.90747" fill="#0087FF"/>
<path d="M94.7601 5.93544H94.6102C93.4222 5.93544 92.9448 5.88509 92.5229 5.88509C86.4943 5.88509 82.5862 9.00665 82.5862 14.7966V29.901C82.5901 29.9892 82.6263 30.0729 82.6878 30.1359C82.7493 30.1989 82.8317 30.2368 82.9193 30.2422H87.1826C87.2789 30.2434 87.3723 30.2095 87.4457 30.1468C87.5191 30.0841 87.5676 29.9968 87.5823 29.901V15.5183C87.5823 12.4023 88.6926 10.4108 92.4452 10.4108H94.7601C94.9545 10.405 95.1389 10.3226 95.2737 10.1815C95.4086 10.0403 95.4833 9.85154 95.4818 9.65558V6.71303C95.4832 6.61365 95.4651 6.51497 95.4284 6.42273C95.3916 6.33049 95.3371 6.24652 95.2679 6.17572C95.1986 6.10493 95.1161 6.04871 95.0252 6.01034C94.9342 5.97197 94.8365 5.95221 94.7379 5.95222" fill="#0087FF"/>
</svg>
