<svg fill="none" height="111" viewBox="0 0 227 111" width="227" xmlns="http://www.w3.org/2000/svg"><path d="m35.4828 41.4789c-5.5518-1.5432-7.2069-2.4825-7.2069-4.6294 0-1.5767 1.3448-2.9186 4.862-2.9186 2 0 4.9655.3355 7.4138 2.6167.2414.2348.5862.0335.7242-.0671l3.1724-3.1869c.1724-.1678.1034-.4026-.1035-.6374-2.3793-3.1198-6.862-4.1262-11.1034-4.1262-6.4483 0-11.3793 2.885-11.3793 8.353 0 5.6023 3.862 8.0512 11.0689 10.131 4.1724 1.1741 6.4138 2.0799 6.4138 4.294 0 2.3147-2.5862 3.3881-5.862 3.3881-3.4483 0-6.5173-.738-9.138-3.3546-.1379-.1677-.4827-.1006-.6552.1342l-3.3103 3.623c-.1034.2013 0 .4361.1379.5703 3.0345 3.254 7.7587 4.5287 12.5518 4.5287 6.7241 0 12.4827-2.8514 12.4827-8.9904.0345-5.9377-3.7586-7.9505-10.0689-9.7284z" fill="#0087ff"/><path d="m77.8276 29.1002h-5.5862c-.3103 0-.5517.2684-.5517.4361v18.2493c0 3.9584-1.4483 6.4744-6.3793 6.4744-4.6552 0-6.3448-2.2476-6.3448-6.3067v-18.2828c0-.2348-.1725-.5703-.4828-.5703h-5.4828c-.3103 0-.5172.3355-.5172.5703v19.155c0 7.3131 4.8276 11.171 12.7931 11.171 7.8966 0 13.0345-3.9585 13.0345-11.3052v-19.155c-.0345-.1677-.2069-.4361-.4828-.4361z" fill="#0087ff"/><path d="m98.8621 28.6972c-7.8965 0-13.0345 3.9585-13.0345 11.3051v19.155c0 .1678.1725.4361.4483.4361h5.5862c.3104 0 .5173-.2683.5173-.4361v-18.2492c0-3.9585 1.4482-6.4745 6.3793-6.4745 4.6553 0 6.3453 2.2476 6.3453 6.3068v18.3163c0 .2348.172.5703.482.5703h5.483c.31 0 .552-.3355.552-.5703v-19.155c.034-7.3467-4.793-11.2045-12.7589-11.2045z" fill="#0087ff"/><path d="m168.621 29.1002h-5.587c-.31 0-.517.2684-.517.4361v18.2493c0 3.9584-1.448 6.4744-6.379 6.4744-4.655 0-6.345-2.2476-6.345-6.3067v-18.2828c0-.2348-.172-.5703-.483-.5703h-5.517c-.31 0-.552.3355-.552.5703v19.155c0 7.3131 4.828 11.171 12.793 11.171 7.897 0 13.035-3.9585 13.035-11.3052v-19.155c0-.1677-.173-.4361-.448-.4361z" fill="#0087ff"/><path d="m189.655 28.6972c-7.896 0-13.034 3.9585-13.034 11.3051v19.155c0 .1678.172.4361.448.4361h5.586c.311 0 .552-.2683.552-.4361v-18.2492c0-3.9585 1.414-6.4745 6.379-6.4745 4.655 0 6.345 2.2476 6.345 6.3068v18.3163c0 .2348.172.5703.483.5703h5.483c.31 0 .551-.3355.551-.5703v-19.155c0-7.3467-4.827-11.2045-12.793-11.2045z" fill="#0087ff"/><path d="m136.586 28.7643h-.207c-1.551-.0336-2.138-.0671-2.758-.0671-7.931 0-13.035 3.9585-13.035 11.3051v19.1886c0 .1677.173.4361.448.4361h5.587c.31 0 .517-.2684.517-.4361v-18.2493c0-3.9584 1.448-6.4744 6.379-6.4744h2.828.207c.551 0 .965-.4361.965-.9393v-3.7908c.069-.5367-.379-.9728-.931-.9728z" fill="#0087ff"/><g fill="#fff"><path d="m26.5173 85.324h-6.1035v-1.0735c1.5517 0 1.9311-.0671 2.2069-.738l5.8621-14.6598h1.7241l5.8621 14.6598c.2414.6709.6207.738 2.2069.738v1.0735h-7v-1.0735c1.8621 0 2.3793-.1006 2.3793-.4696 0-.1007-.0345-.2013-.1379-.4697l-1.5173-4.0256h-6.2069l-1.5172 4.0256c-.1035.2684-.1379.369-.1379.4697 0 .369.5172.4696 2.3793.4696zm-.2759-7.1789h5.3103l-2.5862-6.8435h-.1034z"/><path d="m44.3104 85.5923c-1.8276 0-3.2069-1.1741-3.2069-2.7843v-7.8834h-1.6207v-1.2077h1.6207v-2.9856l2.2069-.6039v3.5895h3.7931v1.2077h-3.7931v7.2795c0 1.2748.6896 1.9122 1.8965 1.9122.8966 0 1.6207-.4697 2.3448-1.2412l.6552.8051c-.9655 1.2747-2.4483 1.9121-3.8965 1.9121z"/><path d="m63.2069 83.4454c-.8621 1.107-2.5172 2.147-4.0345 2.147-1.6896 0-2.9655-1.0064-2.9655-2.7173 0-2.1805 2.2069-3.6901 6.8966-4.6294v-1.5431c0-1.3754-.7242-2.147-2.1725-2.147-1.1034 0-2 .5368-2 1.0735 0 .3355.2414.4696.2414 1.0064 0 .7045-.5517 1.1741-1.2758 1.1741-.6897 0-1.3104-.5367-1.3104-1.3754 0-1.7109 2.4483-3.0192 4.8966-3.0192 2.2758 0 3.8276.7716 3.8276 3.1869v6.2061c0 .9058.5517 1.2748 1.0344 1.2748.4828 0 .7931-.1677 1.138-.4361l.3793.7716c-.5517.6038-1.4138 1.1741-2.2759 1.1741-1.2069 0-2.2069-.8722-2.3793-2.147zm-4.8621-.9728c0 1.0064.6552 1.6437 1.6207 1.6437 1.1724 0 2.1724-.5367 3.1035-1.476v-3.2875c-3.138.6709-4.7242 1.5095-4.7242 3.1198z"/><path d="m80.2758 90.8256c-3.2758 0-5.6206-1.0735-5.6206-3.1534 0-1.2076 1.2413-2.0798 2.862-2.3818-1.0345-.3354-1.6552-1.1405-1.6552-2.0463 0-1.2412 1.1035-2.0463 2.1035-2.4824-1.4138-.7045-2.2414-1.9793-2.2414-3.3882 0-2.147 2.2069-3.9585 4.8276-3.9585 1.4138 0 2.6897.5368 3.5517 1.3754.7242-.9057 1.6207-1.845 2.6897-1.845.931 0 1.5517.5367 1.5517 1.4425 0 .8051-.6552 1.2747-1.2069 1.2747-.9655 0-1.0345-.8386-1.4828-.8386-.3103 0-.6551.2013-1.0344.5367.4482.6039.6896 1.2748.6896 2.0128 0 2.147-2.2069 3.9585-4.7586 3.9585-.6207 0-1.2069-.0671-1.6897-.2349-1 .4697-1.5172.8723-1.5172 1.5432 0 .5032.3448.9057.931.9057h4.7931c2.2069 0 4.0345.8051 4.0345 2.9521 0 2.7844-3.2758 4.3275-6.8276 4.3275zm-2.0689-5.2332c-.8966.369-1.5862.9393-1.5862 1.9456 0 1.4425 1.6551 2.147 3.862 2.147 2.6552 0 4.6552-1.0735 4.6552-2.5495 0-1.107-.7241-1.5096-2.3793-1.5096h-4.5517zm2.3448-5.3004c1.5172 0 2.4828-1.107 2.4828-2.885 0-1.7779-.9656-2.8849-2.4828-2.8849s-2.4828 1.107-2.4828 2.8849c-.0344 1.7445.9311 2.885 2.4828 2.885z"/><path d="m90.3793 68.8192-1.1724-.5368v-.5032l3.5862-1.0064h.3448v17.0416c0 .4361.138.4696 1.6552.4696v1.0735h-5.5172v-1.0735c1.5172 0 1.6551-.0335 1.6551-.4696v-14.1901c.0345-.5032-.1034-.6039-.5517-.8051z"/><path d="m104.31 83.4454c-.862 1.107-2.517 2.147-4.034 2.147-1.6897 0-2.9656-1.0064-2.9656-2.7173 0-2.1805 2.2069-3.6901 6.8966-4.6294v-1.5431c0-1.3754-.724-2.147-2.172-2.147-1.104 0-2 .5368-2 1.0735 0 .3355.241.4696.241 1.0064 0 .7045-.5518 1.1741-1.2759 1.1741-.6897 0-1.3104-.5367-1.3104-1.3754 0-1.7109 2.4483-3.0192 4.8963-3.0192 2.276 0 3.828.7716 3.828 3.1869v6.2061c0 .9058.552 1.2748 1.034 1.2748.483 0 .793-.1677 1.138-.4361l.38.7716c-.552.6038-1.414 1.1741-2.276 1.1741-1.207 0-2.207-.8722-2.38-2.147zm-4.8617-.9728c0 1.0064.6557 1.6437 1.6207 1.6437 1.172 0 2.172-.5367 3.103-1.476v-3.2875c-3.137.6709-4.7237 1.5095-4.7237 3.1198z"/><path d="m115.793 85.324h-5.517v-1.0735c1.517 0 1.655-.0335 1.655-.4696v-7.4809c0-.5367-.138-.6038-.586-.8051l-1.173-.5367v-.5368l3.587-1.0064h.345v2.2141c.758-.9728 2.413-2.2141 4.137-2.2141 2.483 0 3.449 1.9457 3.449 4.1262v6.2061c0 .4361.138.4697 1.655.4697v1.0735h-5.517v-1.0735c1.517 0 1.655-.0336 1.655-.4697v-6.0048c0-1.7444-.724-2.7172-2.311-2.7172-1.206 0-2.379.7044-3.068 1.476v7.2796c0 .4361.137.4696 1.655.4696v1.0735z"/><path d="m127.724 79.3863c0 3.0862 1.69 4.6965 3.517 4.6965 1.414 0 2.38-.671 3.207-2.0464l1 .6039c-.896 1.7444-2.482 2.9521-4.62 2.9521-2.793 0-5.311-2.0464-5.311-5.77 0-3.623 2.828-6.3739 5.862-6.3739 2.207 0 3.759 1.2077 3.759 2.3483 0 .7716-.552 1.1741-1.138 1.1741-1.483 0-.931-2.214-2.896-2.214-1.863-.0336-3.38 1.845-3.38 4.6294z"/><path d="m143.138 85.5924c-2.897 0-5.517-2.2141-5.517-5.9378 0-3.623 2.62-6.2061 5.517-6.2061 3.103 0 4.552 2.2141 4.552 4.9649v.8051h-7.897v.0671c0 3.1869 1.793 4.8307 3.862 4.8307 1.311 0 2.207-.5032 3.173-1.7779l.931.6373c-.897 1.6774-2.759 2.6167-4.621 2.6167zm-3.31-7.4809h5.689c-.034-2.1134-.724-3.4553-2.517-3.4553-1.483 0-2.828 1.1741-3.172 3.4553z"/></g></svg>