<svg width="198" height="78" fill="none" xmlns="http://www.w3.org/2000/svg"><path d="M72.066 32.273c-3.193 0-6.387-.865-8.413-3.144-.078-.079-.156-.236-.078-.393l2.22-2.516c.117-.157.351-.196.429-.078 1.753 1.808 3.817 2.319 6.115 2.319 2.181 0 3.934-.747 3.934-2.359 0-1.533-1.519-2.162-4.323-2.987-4.87-1.454-7.44-3.145-7.44-7.036 0-3.813 3.31-5.817 7.634-5.817 2.844 0 5.843.707 7.479 2.83.117.196.195.314.078.471l-2.142 2.202c-.078.078-.312.196-.468.039-1.636-1.572-3.622-1.808-4.986-1.808-2.376 0-3.271.943-3.271 2.044 0 1.493 1.09 2.162 4.83 3.223 4.206 1.218 6.777 2.633 6.777 6.76 0 4.246-3.895 6.25-8.375 6.25zM93.607 32.153c-5.336 0-8.569-2.673-8.569-7.783V11.046c0-.158.156-.393.35-.393h3.7c.196 0 .352.235.352.393V23.78c0 2.83 1.13 4.402 4.245 4.402 3.31 0 4.285-1.769 4.285-4.52V10.928c0-.118.155-.315.35-.315h3.74c.155 0 .311.197.311.315v13.325c0 5.11-3.467 7.9-8.764 7.9zM116.199 10.375c5.336 0 8.569 2.673 8.569 7.783v13.325c0 .157-.156.393-.35.393h-3.7c-.196 0-.352-.236-.352-.393V18.747c0-2.83-1.129-4.402-4.245-4.402-3.31 0-4.285 1.769-4.285 4.52v12.696c0 .118-.155.315-.35.315h-3.74c-.194 0-.311-.197-.311-.315V18.236c0-5.11 3.428-7.861 8.764-7.861zM154.525 32.153c-5.336 0-8.569-2.673-8.569-7.783V11.046c0-.158.156-.393.35-.393h3.7c.196 0 .312.235.312.393V23.78c0 2.83 1.13 4.402 4.246 4.402 3.31 0 4.285-1.769 4.285-4.52V10.928c0-.118.155-.315.35-.315h3.74c.194 0 .311.197.311.315v13.325c0 5.11-3.428 7.9-8.725 7.9zM177.078 10.375c5.336 0 8.569 2.673 8.569 7.783v13.325c0 .157-.156.393-.35.393h-3.7c-.196 0-.313-.236-.313-.393V18.747c0-2.83-1.129-4.402-4.245-4.402-3.31 0-4.285 1.769-4.285 4.52v12.696c0 .118-.155.315-.35.315h-3.74c-.194 0-.311-.197-.311-.315V18.236c0-5.11 3.428-7.861 8.725-7.861zM141.478 10.414h-.117a41.277 41.277 0 0 0-1.83-.039c-5.297 0-8.764 2.751-8.764 7.861v13.325c0 .118.117.315.312.315h3.739c.195 0 .35-.197.35-.315V18.865c0-2.751.974-4.52 4.285-4.52h2.025c.35 0 .662-.315.662-.668v-2.594c0-.394-.272-.669-.662-.669zM17.654 22.837c1.169 10.534 10.283 18.67 21.15 18.16 10.4-.472 18.891-9.002 19.359-19.496C58.708 9.748 49.399 0 37.87 0c-4.168 0-8.063 1.297-11.296 3.459a.338.338 0 0 0-.039.51L29.339 6.8a.298.298 0 0 0 .39.04c2.61-1.612 5.765-2.438 9.075-2.241 8.063.472 14.529 7.154 14.84 15.29.351 9.08-6.855 16.548-15.774 16.548-7.323 0-13.516-5.07-15.269-11.95a.308.308 0 0 1 .078-.314l8.452-8.608a.353.353 0 0 1 .468 0l7.05 7.115c.078.078.155.078.233.078h11.296a.309.309 0 0 0 .312-.314v-3.93a.309.309 0 0 0-.312-.315h-9.426a.55.55 0 0 1-.234-.079l-8.842-8.922a.353.353 0 0 0-.467 0L17.732 22.562a.572.572 0 0 0-.078.275z" fill="#fff"/><path d="M25.367 11.709l2.765-2.79a.361.361 0 0 0 0-.473l-3.856-3.89c-.078-.08-.156-.08-.234-.08h-5.53a.321.321 0 0 0-.234.55l6.621 6.683c.117.118.35.118.468 0z" fill="#FAA81E"/><path d="M20.769 16.23l2.765-2.792a.361.361 0 0 0 0-.471L15.16 4.555c-.078-.078-.156-.078-.234-.078H9.434a.321.321 0 0 0-.233.55l11.1 11.202c.117.118.351.118.468 0z" fill="#FBD40A"/><path d="M.087 5.148l15.58 15.723c.117.118.35.118.468 0L18.9 18.08a.361.361 0 0 0 0-.472L6.046 4.638c-.077-.08-.155-.08-.233-.08H.32c-.273.04-.429.394-.234.59z" fill="#8CC16F"/><path d="M42.894 29.989h3.544c.156 0 .312-.158.312-.315v-3.813c0-.196-.117-.314-.312-.314h-3.544c-.156 0-.312.157-.312.314v3.813c0 .157.156.315.312.315z" fill="#FAA81E"/><path d="M36.272 29.989h3.544c.156 0 .312-.158.312-.315v-3.813c0-.196-.117-.314-.312-.314h-3.544c-.156 0-.312.157-.312.314v3.813c0 .157.156.315.312.315z" fill="#FBD40A"/><path d="M33.195 31.723h-3.544c-.156 0-.312-.157-.312-.314v-8.255c0-.196.117-.314.312-.314h3.544c.156 0 .312.157.312.314v8.255c0 .157-.156.314-.312.314zM72.088 53.547l-1.672-4.57a10.003 10.003 0 0 1-.256-.721 23.52 23.52 0 0 1-.266-.903c-.083.323-.168.627-.257.912-.088.28-.174.523-.256.732l-1.663 4.55h4.37zm4.513 5.187h-1.976c-.222 0-.402-.053-.542-.161a1.073 1.073 0 0 1-.313-.418l-1.026-2.803h-5.69l-1.027 2.803a.91.91 0 0 1-.294.399.822.822 0 0 1-.542.18h-1.995l5.406-13.737h2.603L76.6 58.734zm10.06-11.637H82.52v11.637h-2.556V47.097h-4.142v-2.1h10.84v2.1zm13.23 6.45l-1.672-4.57a10.032 10.032 0 0 1-.256-.721 23.52 23.52 0 0 1-.266-.903c-.082.323-.168.627-.257.912-.088.28-.174.523-.256.732l-1.663 4.55h4.37zm4.513 5.187h-1.976c-.222 0-.402-.053-.542-.161a1.073 1.073 0 0 1-.313-.418l-1.026-2.803h-5.69l-1.027 2.803a.91.91 0 0 1-.294.399.822.822 0 0 1-.542.18H91l5.406-13.737h2.603l5.396 13.737zm17.495-6.887v5.557c-.697.513-1.44.89-2.233 1.13a8.798 8.798 0 0 1-2.526.352c-1.122 0-2.138-.174-3.05-.522a6.877 6.877 0 0 1-2.328-1.454 6.402 6.402 0 0 1-1.481-2.223c-.349-.86-.523-1.801-.523-2.821 0-1.032.168-1.98.504-2.84a6.444 6.444 0 0 1 1.425-2.224 6.432 6.432 0 0 1 2.251-1.444c.88-.342 1.868-.513 2.964-.513.557 0 1.077.045 1.558.133a7.48 7.48 0 0 1 1.349.37c.418.153.798.34 1.14.561.342.222.656.466.94.732l-.731 1.159a.717.717 0 0 1-.446.342c-.184.038-.384-.01-.599-.143l-.627-.36a3.99 3.99 0 0 0-.703-.314 5.541 5.541 0 0 0-.864-.219 6.282 6.282 0 0 0-1.102-.085c-.678 0-1.292.114-1.843.342a3.9 3.9 0 0 0-1.397.978 4.411 4.411 0 0 0-.893 1.53c-.209.595-.313 1.26-.313 1.995 0 .785.11 1.488.332 2.109a4.58 4.58 0 0 0 .95 1.567c.412.425.906.75 1.482.979.576.222 1.22.332 1.929.332.506 0 .959-.053 1.358-.161a6.68 6.68 0 0 0 1.169-.437v-2.49h-1.73a.548.548 0 0 1-.389-.132.484.484 0 0 1-.133-.342v-1.444h4.56zm10.889 4.778v2.11h-8.047V44.996h2.556v11.628h5.49zm9.462-3.078l-1.672-4.57a9.936 9.936 0 0 1-.256-.721c-.089-.279-.178-.58-.266-.903-.083.323-.168.627-.257.912-.088.28-.174.523-.256.732l-1.663 4.55h4.37zm4.513 5.187h-1.976c-.222 0-.402-.053-.542-.161a1.071 1.071 0 0 1-.313-.418l-1.026-2.803h-5.69l-1.027 2.803a.911.911 0 0 1-.294.399.822.822 0 0 1-.542.18h-1.995l5.406-13.737h2.603l5.396 13.737zm13.382-13.737v13.737h-1.31c-.204 0-.375-.031-.514-.095a1.272 1.272 0 0 1-.39-.342l-7.172-9.158c.038.418.057.805.057 1.16v8.435h-2.251V44.997h1.34c.107 0 .199.007.275.02a.506.506 0 0 1 .209.056.54.54 0 0 1 .18.124c.057.05.12.12.19.209l7.201 9.196c-.019-.222-.035-.44-.047-.656a10.297 10.297 0 0 1-.02-.598v-8.35h2.252zm12.873 10.498c.139 0 .263.054.37.161l1.007 1.093a5.517 5.517 0 0 1-2.061 1.586c-.811.368-1.786.551-2.926.551-1.02 0-1.938-.174-2.755-.522a6.077 6.077 0 0 1-2.081-1.454 6.429 6.429 0 0 1-1.33-2.223c-.304-.86-.456-1.801-.456-2.821 0-1.032.165-1.976.494-2.831a6.552 6.552 0 0 1 1.387-2.223 6.301 6.301 0 0 1 2.147-1.444c.83-.348 1.748-.523 2.755-.523 1 0 1.888.165 2.66.494.779.33 1.44.76 1.986 1.292l-.855 1.188a.744.744 0 0 1-.2.2.528.528 0 0 1-.323.085.654.654 0 0 1-.294-.076 8.322 8.322 0 0 1-.333-.2 7.957 7.957 0 0 0-.418-.266 3.178 3.178 0 0 0-.551-.256 3.904 3.904 0 0 0-.731-.2 4.676 4.676 0 0 0-.95-.085 4.22 4.22 0 0 0-1.691.332 3.594 3.594 0 0 0-1.311.95c-.367.412-.652.919-.855 1.52-.203.596-.304 1.277-.304 2.043 0 .773.108 1.46.323 2.061.222.602.519 1.109.893 1.52.374.412.814.729 1.32.95a4.138 4.138 0 0 0 1.634.323c.349 0 .662-.019.94-.057.286-.038.546-.098.78-.18.24-.082.465-.187.674-.314a4.31 4.31 0 0 0 .637-.484.788.788 0 0 1 .199-.133.453.453 0 0 1 .219-.057zm6.073-8.465v3.81h4.807v1.966h-4.807v3.886h6.099v2.042h-8.664V44.997h8.664v2.033h-6.1z" fill="#fff"/></svg>