<svg width="48" height="39" viewBox="0 0 48 39" fill="none" xmlns="http://www.w3.org/2000/svg">
<path d="M47.4599 38.4135H0.945114C0.675071 38.4135 0.405029 38.211 0.405029 37.8734C0.405029 37.6034 0.607561 37.3333 0.945114 37.3333H47.4599C47.7299 37.3333 48 37.5359 48 37.8734C48 38.211 47.7299 38.4135 47.4599 38.4135Z" fill="#06A7E0"/>
<path d="M11.8143 32.7426C8.84388 32.7426 6.07595 30.9198 4.92827 28.1519C2.22785 28.2194 0 25.9916 0 23.2911C0 22.0759 0.405063 20.9283 1.21519 20.0506C0.877637 19.173 0.675106 18.2954 0.675106 17.3502C0.675106 13.5696 3.71308 10.5316 7.49367 10.5316C7.6962 10.5316 7.96625 10.5316 8.23629 10.5992C8.77637 9.04641 10.2616 8.03375 11.8819 8.03375C13.4346 8.03375 14.8523 8.9789 15.4599 10.3966C16.8101 10.1266 18.0928 10.4641 19.173 11.2743C19.3755 11.4768 19.443 11.7468 19.2405 12.0169C19.038 12.2194 18.7679 12.2869 18.4979 12.0844C17.5527 11.4093 16.4051 11.1392 15.2574 11.4768L14.8523 11.5443L14.7173 11.0717C14.3797 9.85654 13.2321 8.9789 11.9494 8.9789C10.5992 8.9789 9.45148 9.92405 9.11392 11.2067L8.9789 11.6793L8.50633 11.6118C8.10127 11.5443 7.83122 11.5443 7.49367 11.5443C4.32068 11.5443 1.68776 14.1772 1.68776 17.3502C1.68776 18.2954 1.8903 19.173 2.29536 19.9831L2.49789 20.2532L2.22785 20.5232C1.48523 21.2658 1.01266 22.211 1.01266 23.2911C1.01266 25.384 2.70042 27.1392 4.86076 27.1392C4.99578 27.1392 5.1308 27.1392 5.26582 27.1392L5.67089 27.0717L5.80591 27.4768C6.75106 30.0422 9.18144 31.7299 11.8819 31.7299C14.7848 31.7299 17.2827 29.7721 18.0928 27.0042L18.1603 26.6667H18.4979C20.2532 26.5316 21.8059 25.654 22.8186 24.2363C22.9536 24.0338 23.2911 23.9662 23.5612 24.1013C23.7637 24.2363 23.8312 24.5738 23.6962 24.8439C22.616 26.3966 20.8608 27.4093 18.9705 27.6793C17.8903 30.6498 14.9873 32.7426 11.8143 32.7426Z" fill="#06A7E0"/>
<path d="M11.8819 38.4135C11.6118 38.4135 11.3418 38.211 11.3418 37.9409V17.3502C12.0169 17.3502 12.0169 17.3502 12.3545 17.3502V37.9409C12.422 38.211 12.1519 38.4135 11.8819 38.4135Z" fill="#06A7E0"/>
<path d="M11.8819 23.8312C10.3291 23.8312 8.97893 23.1561 7.96627 22.1434C7.56121 21.6709 7.15615 21.1308 6.95361 20.5232C7.69623 20.5232 7.69623 20.5232 8.10129 20.5232C8.84391 21.8734 10.2616 22.8186 11.8819 22.8186C12.1519 22.8186 12.422 23.0211 12.422 23.3586C12.422 23.5612 12.1519 23.8312 11.8819 23.8312Z" fill="#06A7E0"/>
<path d="M11.8819 27.3418C11.6118 27.3418 11.3418 27.1392 11.3418 26.8017C11.3418 26.4641 11.5443 26.2616 11.8819 26.2616C13.9747 26.2616 15.73 24.7088 16.0675 22.6835C16.6751 22.6835 16.6076 22.6835 17.0802 22.6835C16.8102 25.3164 14.5823 27.3418 11.8819 27.3418Z" fill="#06A7E0"/>
<path d="M33.2152 29.1646C30.4473 29.1646 27.8144 27.8819 26.1266 25.7215C25.9916 25.7215 25.8566 25.7215 25.7216 25.7215C22.9536 25.7215 20.6583 23.4262 20.6583 20.6582C20.6583 19.8481 20.8608 19.1055 21.1984 18.4304C19.3756 17.2152 18.2954 15.1224 18.2954 12.8945C18.2954 9.65401 20.6583 6.88607 23.7638 6.34599C24.3714 4.11814 26.3967 2.43038 28.692 2.29536C29.3671 0.877637 30.7849 0 32.4051 0C33.9579 0 35.3756 0.877637 36.0507 2.22785C39.6287 1.75527 42.8017 4.59072 42.8017 8.16878C42.8017 8.77637 42.7342 9.38396 42.5317 9.92405C44.9621 11.0042 46.5823 13.3671 46.5823 16.0675C46.5823 18.9705 44.692 21.5359 41.9916 22.4135C40.979 26.3291 37.3334 29.1646 33.2152 29.1646ZM26.5992 24.6413L26.8017 24.9114C28.287 26.9367 30.7174 28.1519 33.2828 28.1519C37.0633 28.1519 40.3039 25.519 41.114 21.8059L41.1815 21.5359L41.4515 21.4684C43.8819 20.7932 45.6372 18.5654 45.6372 16C45.6372 13.5696 44.0844 11.4768 41.7891 10.6667L41.249 10.4641L41.4515 9.99156C41.7216 9.38397 41.7891 8.77637 41.7891 8.16878C41.7891 5.40084 39.5612 3.24051 36.8608 3.24051C36.5233 3.24051 36.1857 3.24051 35.9157 3.30802L35.5106 3.37553L35.3756 2.97046C34.903 1.75527 33.7553 1.01266 32.4726 1.01266C31.1899 1.01266 30.0422 1.82278 29.5697 3.03797L29.3671 3.37553H29.0296C26.8693 3.37553 25.0465 4.86076 24.6414 6.95359L24.5739 7.29114L24.2363 7.35865C21.4009 7.6962 19.3081 10.1266 19.3081 12.962C19.3081 14.9873 20.3882 16.8776 22.1435 17.8228L22.6161 18.0928L22.2785 18.5654C21.8735 19.2405 21.6709 19.9831 21.6709 20.7257C21.6709 22.9536 23.4937 24.7764 25.7216 24.7764C25.9241 24.7764 26.0591 24.7764 26.2617 24.7089L26.5992 24.6413Z" fill="#06A7E0"/>
<path d="M32.4051 38.4135C32.135 38.4135 31.865 38.211 31.865 37.8734V12.557V11.1393H32.8776V37.8734C32.9452 38.211 32.6751 38.4135 32.4051 38.4135Z" fill="#06A7E0"/>
<path d="M32.4051 15.865C32.135 15.865 31.865 15.6625 31.865 15.3249C31.865 14.9874 32.135 14.8523 32.4051 14.8523C34.3629 14.8523 35.9831 13.2321 35.9831 11.2743C35.9831 11.0042 36.1857 10.7342 36.5232 10.7342C36.7933 10.7342 37.0633 10.9367 37.0633 11.2743C37.0633 13.7722 34.9705 15.865 32.4051 15.865Z" fill="#06A7E0"/>
<path d="M32.4052 20.4557C30.0423 19.9831 27.9495 18.4979 26.7343 16.4726C26.5993 16.27 26.5317 16.135 26.3967 15.9325C27.0718 16 26.8018 16 27.5444 15.9325C28.6246 17.6878 30.3123 18.903 32.3377 19.3755C33.0128 19.5106 33.0128 20.5907 32.4052 20.4557Z" fill="#06A7E0"/>
<path d="M32.4051 24.0337C32.135 24.0337 31.865 23.8312 31.865 23.4937C31.865 23.2236 32.0675 22.9536 32.4051 22.9536C35.3755 22.9536 38.0085 21.2658 39.2912 18.7679C39.4262 18.4979 39.5612 18.1603 39.6962 17.8903C40.3038 17.8903 40.1013 17.8903 40.7764 17.8903C39.6287 21.4683 36.3207 24.0337 32.4051 24.0337Z" fill="#06A7E0"/>
<path d="M13.1644 16.2025H10.6665V13.7047H13.1644C13.1644 16.2025 13.1644 13.7047 13.1644 16.2025Z" fill="#FCD40B"/>
<path d="M17.9578 21.8734H15.46V19.3755H17.9578C17.9578 21.8734 17.9578 19.3756 17.9578 21.8734Z" fill="#FAA81E"/>
<path d="M8.70883 19.443H6.21094V16.9452H8.70883C8.70883 19.4431 8.70883 16.9452 8.70883 19.443Z" fill="#86C24B"/>
<path d="M33.6876 9.99157H31.1897V7.49368H33.6876C33.6876 9.99157 33.6876 7.49368 33.6876 9.99157Z" fill="#FCD40B"/>
<path d="M41.5189 16.9452H39.021V14.4473H41.5189C41.5189 16.9452 41.5189 14.4473 41.5189 16.9452Z" fill="#FAA81E"/>
<path d="M28.0843 14.9874H25.5864V12.4895H28.0843C28.0843 14.9874 28.0843 12.4895 28.0843 14.9874Z" fill="#86C24B"/>
</svg>
