<svg width="23" height="44" viewBox="0 0 23 44" fill="none" xmlns="http://www.w3.org/2000/svg">
<path d="M18.1201 16.0514V23.0788C18.1201 23.0788 18.1201 24.7288 16.3418 24.7288C14.1956 24.7288 14.257 22.5289 14.257 22.5289L14.073 14.5847" stroke="#06A7E0" stroke-miterlimit="10"/>
<path d="M21.9833 23.0788C21.9833 23.0788 21.6767 24.4843 20.3276 24.4843C18.3654 24.4843 18.1201 22.7733 18.1201 22.7733" stroke="#06A7E0" stroke-miterlimit="10"/>
<path d="M6.8374 23.6897C6.8374 23.6897 7.38928 24.1175 8.12512 24.1175" stroke="#06A7E0" stroke-miterlimit="10" stroke-linecap="round"/>
<path d="M6.8374 26.012C6.8374 26.012 7.94116 25.7064 7.94116 25.2787" stroke="#06A7E0" stroke-miterlimit="10" stroke-linecap="round"/>
<path d="M6.1015 37.9283C6.1015 37.9283 6.1015 36.0339 6.1015 35.1173C6.1015 34.2006 5.7949 33.8951 5.30435 33.284C3.89399 31.573 1.19591 27.9676 1.01195 25.7065C0.827995 22.6511 2.79023 20.2068 5.30435 20.0846C7.81846 19.9623 13.0306 20.0846 13.0306 20.0846C13.0306 20.0846 13.7052 24.1177 8.06374 24.1177C7.57318 24.1177 7.6345 25.4621 8.06374 25.4621C9.22882 25.4621 12.3561 25.7065 12.3561 28.9453L12.2335 30.9619" stroke="#06A7E0" stroke-miterlimit="10" stroke-linejoin="round"/>
<path d="M3.526 20.6344L1.87036 3.09627C1.87036 3.09627 1.87036 1.2019 3.89392 1.01858C5.91747 0.835251 6.28539 2.6074 6.28539 2.6074L8.30895 16.6624C8.30895 16.6624 8.18631 17.029 8.61555 17.029C9.04478 17.029 9.1061 16.2957 9.1061 16.2957C9.1061 16.2957 11.191 3.03516 11.2523 2.54629C11.3136 2.05742 11.9881 0.835251 13.7664 1.01858C15.5447 1.26301 15.8513 2.66851 15.7286 3.21848C15.6673 3.58513 14.073 14.5236 14.073 14.5236C14.073 14.5236 14.6862 13.9736 15.9126 13.9736C17.9362 13.9736 18.1814 15.9902 18.1814 15.9902C18.1814 15.9902 18.6107 15.2569 20.021 15.2569C21.3701 15.2569 21.9833 16.3568 21.9833 17.7012C21.9833 18.6178 21.9833 23.0176 21.9833 23.0176C21.9833 23.0176 22.4125 30.5951 18.9173 33.895C18.1201 34.6283 18.5494 37.9892 18.5494 37.9892" stroke="#06A7E0" stroke-miterlimit="10" stroke-linejoin="round"/>
<path d="M4.875 37.928C4.44576 37.928 4.13916 38.2947 4.13916 38.6613V42.2667C4.13916 42.6945 4.50708 43 4.875 43H19.4691C19.8984 43 20.205 42.6334 20.205 42.2667V38.6613C20.205 38.2336 19.837 37.928 19.4691 37.928H4.875Z" stroke="#06A7E0" stroke-miterlimit="10" stroke-linejoin="round"/>
<path d="M13.337 41.5946H11.0681V39.3336H13.337C13.337 41.5946 13.337 39.3336 13.337 41.5946Z" fill="#FCD40B"/>
<path d="M17.936 41.5946H15.7285V39.3336H17.9974C17.936 41.5946 17.936 39.3336 17.936 41.5946Z" fill="#FAA81E"/>
<path d="M8.67675 41.5949H6.46924V39.3339H8.73807C8.67675 41.5949 8.67675 39.3339 8.67675 41.5949Z" fill="#86C24B"/>
</svg>
